<?xml version="1.0" encoding="utf-8"?>
<!-- Generator: Adobe Illustrator 26.3.1, SVG Export Plug-In . SVG Version: 6.00 Build 0)  -->
<svg version="1.1" id="Layer_1" xmlns="http://www.w3.org/2000/svg" xmlns:xlink="http://www.w3.org/1999/xlink" x="0px" y="0px"
	 viewBox="0 0 1056 478.1" style="enable-background:new 0 0 1056 478.1;" xml:space="preserve">
<style type="text/css">
	.st0{fill:#FFFFFF;}
</style>
<g>
	<g>
		<g>
			<path class="st0" d="M240.6,75.5L240,60.9c-4.9-3.2-10-5.6-15.3-7.2c-5.3-1.6-10.9-2.4-16.7-2.4c-14.8,0-26.6,4.5-35.5,13.5
				c-8.9,9-13.3,21-13.3,36c0,10.6,2.3,20,6.8,28.2s10.9,14.8,19.2,19.6c8.3,4.8,17.1,7.2,26.3,7.2c7.3,0,14.6-0.8,21.7-2.5
				c5.4-1.3,10.7-3.9,16.2-7.9l1.7,1.6c-1.1,2.5-2.2,5.1-3.2,7.6c-6.4,3.2-12.8,5.6-19.3,7.2c-6.5,1.6-13,2.4-19.6,2.4
				c-13.5,0-25.3-2.6-35.5-7.8s-18-12.4-23.5-21.5c-5.5-9.2-8.2-19.5-8.2-31s2.8-21.9,8.3-31c5.5-9.1,13.3-16.2,23.4-21.2
				c10.1-5,22.5-7.5,37.2-7.5c7.7,0,16.7,1.3,27.1,3.8c5.1,1.2,9.3,2.1,12.6,2.7c-2.5,5.9-3.9,14.1-4.3,24.8H240.6z"/>
			<path class="st0" d="M302.8,115.6v18.5c0,3.2,0.1,6.9,0.3,11.2c0.3,6,0.5,9.4,0.7,10c0.2,0.6,0.8,1.3,1.9,2c1.1,0.7,2.9,1,5.4,1
				h4.5v4.2c-5.8-0.3-11.3-0.5-16.7-0.5c-5.2,0-12.6,0.2-22.2,0.5v-4.2h4.1c4.6,0,7.4-0.8,8.2-2.4c0.8-1.6,1.3-8.8,1.3-21.6v-40
				c0-11.6-0.4-18.2-1.3-19.7c-0.9-1.6-3.3-2.4-7.4-2.4h-4.9v-4.2c7.3,0.3,14.1,0.5,20.4,0.5c6.3,0,12.5-0.2,18.5-0.5v4.2h-2.9
				c-4.1,0-6.7,0.3-7.6,1c-1,0.7-1.6,1.7-1.8,3.3c-0.4,2.4-0.5,8.4-0.5,17.8v15.2c7.9,0.3,17.9,0.5,30.1,0.5
				c10.3,0,18.7-0.2,25.2-0.5v-13c0-7.6-0.3-13.9-0.8-19.1c-0.2-1.8-0.8-3.1-1.8-3.9c-1-0.8-3.1-1.2-6.2-1.2h-4.8v-4.2
				c6.8,0.3,13.2,0.5,19.2,0.5c6.5,0,13.4-0.2,20.4-0.5v4.2h-5c-3.4,0-5.6,0.4-6.5,1.1c-1,0.8-1.5,2.1-1.7,4.1
				c-0.2,2-0.3,8.4-0.3,19v36.7c0,13.6,0.4,21.2,1.2,22.7c0.8,1.6,3.2,2.4,7.3,2.4h5.2v4.2c-6.1-0.3-12.4-0.5-18.9-0.5
				c-7.4,0-14.4,0.2-20.8,0.5v-4.2h4.6c3.4,0,5.5-0.4,6.5-1.2c1-0.8,1.6-2.2,1.8-4.4c0.5-4.6,0.7-11.2,0.7-19.9v-17.3
				c-6.2-0.3-14.2-0.5-23.9-0.5C320.3,115.2,309.9,115.3,302.8,115.6z"/>
			<path class="st0" d="M415.4,115.3c0-14.6,4.7-26.3,14.1-35.2c9.4-8.9,21.9-13.3,37.5-13.3c15.3,0,27.3,4.1,36,12.4
				c8.7,8.3,13.1,19.2,13.1,32.9c0,14.7-5,27.1-15.1,37c-10.1,9.9-22.8,14.9-38.2,14.9c-9.6,0-17.9-1.9-24.8-5.8
				c-7-3.9-12.4-9.6-16.5-17.1C417.4,133.5,415.4,124.9,415.4,115.3z M428.8,109.9c0,10,1.7,18.7,5.1,26.1c3.4,7.4,8,13,13.8,16.7
				c5.8,3.7,12.3,5.5,19.7,5.5c6.9,0,12.9-1.6,18-4.7c5.1-3.1,9.2-7.8,12.1-14.1c2.9-6.2,4.4-13.8,4.4-22.8c0-9.4-1.6-17.4-4.9-24.1
				c-3.3-6.7-7.7-11.7-13.4-15c-5.7-3.4-12.4-5-20.1-5c-7.1,0-13.2,1.5-18.3,4.4c-5.1,3-9.2,7.3-12.1,13
				C430.3,95.7,428.8,102.3,428.8,109.9z"/>
			<path class="st0" d="M632.2,92.1l-0.5-11.8c-3.9-2.6-8.1-4.6-12.4-5.8c-4.3-1.3-8.8-1.9-13.5-1.9c-11.9,0-21.5,3.6-28.7,10.9
				c-7.2,7.3-10.8,17-10.8,29.1c0,8.5,1.8,16.1,5.5,22.8c3.7,6.7,8.8,12,15.6,15.9c6.7,3.9,13.8,5.8,21.3,5.8
				c5.9,0,11.8-0.7,17.6-2.1c4.3-1,8.7-3.1,13.1-6.4l1.4,1.3c-0.9,2-1.8,4.1-2.6,6.2c-5.2,2.6-10.4,4.5-15.6,5.8
				c-5.2,1.3-10.5,2-15.8,2c-10.9,0-20.5-2.1-28.7-6.3c-8.3-4.2-14.6-10-19-17.4c-4.4-7.4-6.6-15.8-6.6-25.1
				c0-9.3,2.2-17.7,6.7-25.1c4.5-7.4,10.8-13.1,18.9-17.1c8.2-4,18.2-6.1,30.1-6.1c6.2,0,13.5,1,21.9,3.1c4.2,1,7.5,1.7,10.2,2.2
				c-2,4.7-3.1,11.4-3.5,20H632.2z"/>
			<path class="st0" d="M713.8,74.1c-0.5,6.6-0.7,13.6-0.7,21v37.8c0,14.1,0.4,21.8,1.1,23.3c0.7,1.4,3.2,2.2,7.6,2.2h5v4.2
				c-7.8-0.3-14.5-0.5-19.9-0.5c-5.5,0-12.1,0.2-19.8,0.5v-4.2h5.6c2.9,0,4.8-0.4,5.7-1.2c0.9-0.8,1.4-2.3,1.7-4.5
				c0.4-5.2,0.7-11.9,0.7-20V94.7c0-7.5-0.2-14.3-0.5-20.6h-6.8c-10.9,0-16.9,0.3-18,0.8c-1.1,0.5-1.8,2.5-2.2,5.9l-0.9,8.9h-4.2
				l0.1-7.9c0-3.2-0.3-7.8-0.8-13.7c23.9,0.3,37.9,0.5,42.1,0.5l36.7-0.5c-0.8,7.5-1.3,14.7-1.5,21.6h-4.2l-0.7-8.7
				c-0.3-3-0.6-4.8-1.1-5.3c-0.5-0.6-1.6-0.9-3.3-1c-4.9-0.4-10.4-0.5-16.6-0.5H713.8z"/>
			<path class="st0" d="M830.6,130.7h-38.4l-4.5,10.7c-3,7.1-4.4,11.4-4.4,13c0,1,0.3,1.7,0.8,2.2c0.6,0.4,2,0.8,4.2,1.1l6.4,0.7
				v4.2c-4.2-0.3-9-0.5-14.3-0.5c-6.4,0-12,0.2-16.8,0.5v-4.2l2-0.1c3.1-0.1,5.1-0.4,6-1c0.9-0.6,1.9-1.9,2.9-4.1
				c3.1-6.4,6.3-13.3,9.6-20.6l18.3-41.3c4.9-11,8.2-18.9,10-23.9h4.5l33.6,78.1c2.3,5.3,3.8,8.5,4.5,9.6c0.8,1.1,1.6,1.9,2.6,2.3
				c1,0.5,3.2,0.8,6.6,1v4.2c-5.8-0.3-11.2-0.5-16.5-0.5c-4.9,0-11.3,0.2-19.4,0.5v-4.2l6.6-0.4c2.3-0.2,3.7-0.4,4.2-0.7
				c0.7-0.5,1-1.1,1-1.9c0-0.8-0.7-2.9-2-6.2L830.6,130.7z M794.7,125.3h33.4l-16.7-39.9L794.7,125.3z"/>
			<path class="st0" d="M921.8,142.4l15.4-38c2.6-6.5,7.4-18.9,14.2-37.2h4.1c2.6,8.2,6.1,18.5,10.6,31.1l16,45l12.2-42
				c1.2-4,3.1-11.8,6-23.2c0.3-1,0.4-1.9,0.4-2.5c0-0.8-0.3-1.4-1-1.8c-0.7-0.4-2.3-0.7-4.9-1l-6-0.5v-4.2
				c6.2,0.3,11.1,0.5,14.6,0.5c3.8,0,8.5-0.2,14.1-0.5v4.2h-3.5c-1.5,0-2.6,0.4-3.4,1.1c-1.4,1.5-4.8,10.7-10.1,27.9
				c-7,22.8-12.8,43.6-17.5,62.4h-6.8c-0.8-3-1.5-5.2-2-6.6c-2-5.7-6.5-18.3-13.6-37.7l-10.9-29.9l-12.4,30.1
				c-7.4,18-12.9,32.7-16.5,44.1h-6.7l-3.5-16.3c-1-4.8-2.1-10-3.4-15.4l-11.6-49.6c-1.1-4.9-2.1-7.7-3-8.6
				c-0.9-0.9-2.7-1.3-5.5-1.3h-2.8v-4.2c6.3,0.3,11.8,0.5,16.4,0.5c4.5,0,10.5-0.2,18.1-0.5v4.2h-4.2c-3,0-5,0.3-5.9,0.8
				c-0.9,0.5-1.4,1.4-1.4,2.6c0,0.7,0.1,1.5,0.3,2.5l4.6,22L921.8,142.4z"/>
		</g>
		<path class="st0" d="M169.4,48c-1.5,0.2-3.6,0.6-5.9,1.2c-3,0.7-13.2,3.5-26.4,12.7c-2.6,1.8-13.5,9.6-24.6,23.4
			c-11.6,14.4-17,27.7-20.1,35.1c-1.3,3.2-2.5,6.5-3.5,9.5l6,7.4l-8.2-0.1c-0.3,1-0.4,1.6-0.4,1.6c-1.1,4.2-1.8,7.8-2.2,10.6
			c-1,7.2-1.3,12.5-1.3,12.5c-0.1,2.1-0.2,3.9-0.4,7c-0.3,3.3-0.6,6-0.9,7.8c0,0.1,0,0.1,0.1,0.1c7.5-3.5,17.4-9.9,25.7-20.2
			c4.2-5.2,9.1-14.7,11.3-19.2c0.2-0.5,0.5-1,0.7-1.5l-13.3-4l16.3-3.8c1.9-5,3.8-10.6,5.2-15.1l-11.4,1.2l13.5-8.5
			c1.4-5.1,2.9-9.3,2.9-9.3c2.4-6.6,4.4-12.2,7.9-18.6c3.8-7,10.6-19.1,24.1-26.9c2-1.2,3.7-2,5-2.6C169.5,48.1,169.5,48,169.4,48z
			 M146.8,59.8c-10,9.1-18.4,19.6-25.4,31.1c-8,13.1-14.7,27.2-19.9,41.6c-1.4,3.9-2.5,7.8-3.9,11.7c-0.7,1.8-1.4,3.5-2.1,5.2
			c-0.2,0.5-0.8,1.8-1.4,2.8c-0.1,0.1-0.2,0-0.2-0.1c1.1-6.3,2.7-12.6,4.5-18.7c2.3-7.8,5.2-15.5,8.5-22.9
			c5.9-13,13.4-25.5,22.9-36.1c5-5.6,10.6-10.5,16.8-14.6C146.7,59.6,146.8,59.7,146.8,59.8z"/>
		<path class="st0" d="M89.5,91.4l-5.2-8.9L94.8,87c1.2-1,2.1-1.8,2.1-1.8c1.8-1.6,3.5-3.2,6.6-5.9c0.1-0.1,0.3-0.2,0.5-0.4
			l-5.1-6.6l9.2,3c1.9-1.7,3.8-3.3,4-3.5c9.9-8.6,20.4-13.8,24.6-15.9c4.9-2.4,11.3-5.2,19.2-7.7c0.1,0,0.1-0.1,0-0.1
			c-10-1.1-22.8-1.1-37,2.3C111.8,52,91.6,58.2,73.1,74c-3.1,2.6-5.7,5.1-8.2,7.6l2.3,5.2l-6.2-1c-2,2.3-3.8,4.6-5.6,7
			c0,0-9.5,12.1-16.9,18.7c-0.1,0.1,0,0.3,0.1,0.3c3.9,0,8.9-0.4,14.7-1.6c1.4-0.3,7.5-1.7,15.1-5.2c8.4-3.8,13.5-7.9,18.6-11.6
			C87.7,92.8,88.6,92.2,89.5,91.4z M61.2,97.2c-1.3,1.1-2.6,2.2-3.9,3.3c0,0-0.5,0.4-1.2,0.9c-0.1,0.1-0.2-0.1-0.2-0.2
			c3.3-4.4,7.2-8.4,11.1-12.2c4.9-4.7,10-9.2,15.4-13.3c11-8.4,23.1-15.7,36.1-20.5c5.4-2,11.1-3.4,16.8-4.3c0.1,0,0.2,0.2,0,0.2
			c-12.3,3.3-23.8,8.9-34.6,15.7C90,73.8,79.7,81.6,69.8,89.9C66.9,92.3,64,94.7,61.2,97.2z"/>
	</g>
	<rect x="365.3" y="210.6" class="st0" width="435.3" height="2.6"/>
	<g>
		<path class="st0" d="M341.1,393.2v16.9h20.8v-16.9h7.8v40.1h-7.8v-16.9h-20.8v16.9h-7.8v-40.1H341.1z"/>
		<path class="st0" d="M409.8,392.7c4.2,0,7.9,0.9,11.2,2.6c3.3,1.7,6,4.2,7.9,7.4c2,3.2,3,6.8,3,10.6c0,3.8-1,7.2-2.9,10.4
			c-1.9,3.2-4.6,5.7-7.9,7.5c-3.4,1.8-7.1,2.7-11.4,2.7c-4.2,0-7.9-0.9-11.3-2.7c-3.4-1.8-6-4.3-7.9-7.4c-1.9-3.1-2.8-6.6-2.8-10.4
			c0-3.7,0.9-7.1,2.8-10.4c1.9-3.2,4.5-5.7,7.8-7.5C401.7,393.6,405.5,392.7,409.8,392.7z M395.7,413.3c0,2.7,0.6,5.1,1.8,7.2
			s2.9,3.8,5,4.9c2.2,1.2,4.6,1.8,7.3,1.8c4.1,0,7.5-1.3,10.2-3.9c2.7-2.6,4-5.9,4-10c0-2.7-0.6-5.1-1.8-7.2c-1.2-2.1-2.9-3.8-5.1-5
			c-2.2-1.2-4.6-1.8-7.3-1.8c-2.7,0-5.2,0.6-7.3,1.8c-2.2,1.2-3.8,2.8-5,4.9C396.3,408.2,395.7,410.6,395.7,413.3z"/>
		<path class="st0" d="M471,392.7c2.3,0,4.5,0.3,6.7,0.8s4.5,1.4,7.1,2.6v7.3c-2.5-1.4-4.8-2.4-6.8-3.1c-2.1-0.6-4.3-0.9-6.6-0.9
			c-2.9,0-5.4,0.6-7.7,1.8c-2.3,1.2-4.1,2.8-5.4,5s-1.9,4.5-1.9,7.1c0,2.7,0.6,5.1,1.9,7.2c1.3,2.1,3,3.8,5.3,4.9
			c2.3,1.2,4.9,1.7,7.8,1.7c2.2,0,4.3-0.3,6.3-0.9c2-0.6,4.5-1.8,7.6-3.4v7.3c-2.6,1.4-5,2.3-7.2,2.9c-2.2,0.6-4.7,0.9-7.6,0.9
			c-4.2,0-8-0.8-11.3-2.5c-3.3-1.7-5.9-4.1-7.9-7.3c-1.9-3.2-2.9-6.6-2.9-10.4c0-4,1-7.7,2.9-10.9c2-3.2,4.7-5.7,8.1-7.4
			C462.8,393.6,466.7,392.7,471,392.7z"/>
		<path class="st0" d="M511.1,393.2v16.9H532v-16.9h7.8v40.1H532v-16.9h-20.8v16.9h-7.8v-40.1H511.1z"/>
		<path class="st0" d="M579.7,393.2l17.7,40.1h-8.2l-4.2-9.8h-17.8l-3.9,9.8h-8.1l16.5-40.1H579.7z M569.5,417.7h13l-6.8-15.9
			L569.5,417.7z"/>
		<path class="st0" d="M641.4,393.2v6.1h-14.2v34.1h-7.8v-34.1h-14.2v-6.1H641.4z"/>
		<path class="st0" d="M676.3,392.7c4.2,0,7.9,0.9,11.2,2.6c3.3,1.7,6,4.2,7.9,7.4c2,3.2,3,6.8,3,10.6c0,3.8-1,7.2-2.9,10.4
			c-1.9,3.2-4.6,5.7-7.9,7.5c-3.4,1.8-7.1,2.7-11.4,2.7c-4.2,0-7.9-0.9-11.3-2.7c-3.4-1.8-6-4.3-7.9-7.4c-1.9-3.1-2.8-6.6-2.8-10.4
			c0-3.7,0.9-7.1,2.8-10.4c1.9-3.2,4.5-5.7,7.8-7.5C668.1,393.6,672,392.7,676.3,392.7z M662.1,413.3c0,2.7,0.6,5.1,1.8,7.2
			c1.2,2.1,2.9,3.8,5,4.9c2.2,1.2,4.6,1.8,7.3,1.8c4.1,0,7.5-1.3,10.2-3.9c2.7-2.6,4-5.9,4-10c0-2.7-0.6-5.1-1.8-7.2
			c-1.2-2.1-2.9-3.8-5.1-5c-2.2-1.2-4.6-1.8-7.3-1.8c-2.7,0-5.2,0.6-7.3,1.8c-2.2,1.2-3.8,2.8-5,4.9
			C662.7,408.2,662.1,410.6,662.1,413.3z"/>
		<path class="st0" d="M719.1,393.2l10,24.8l10.5-24.8h6.5l10.6,24.8l10-24.8h7.9l-16.5,40.6h-2.6l-12.6-29.8l-12.7,29.8h-2.5
			l-16.5-40.6H719.1z"/>
		<path class="st0" d="M796.8,393.2l23.8,28v-28h7.6v40.1h-6.7l-24-28.5v28.5H790v-40.1H796.8z"/>
	</g>
	<g>
		<polygon class="st0" points="329.2,262 329.2,323.1 370.6,323.1 370.6,313.9 341,313.9 341,262 		"/>
		<path class="st0" d="M420.1,275.1l10.3,24.2h-19.7L420.1,275.1z M414,262l-25.2,61.1h12.4l5.9-14.9h27.2l6.3,14.9h12.5l-27-61.1
			H414z"/>
		<polygon class="st0" points="523.3,262 523.3,304.7 487,262 476.7,262 476.7,323.1 488.2,323.1 488.2,279.8 524.7,323.1 
			534.9,323.1 534.9,262 		"/>
		<path class="st0" d="M589.1,313.9c6.5,0,11.8-2,15.7-5.9c4-3.9,5.9-9.1,5.9-15.4c0-6.6-2-11.8-6-15.6c-4-3.8-9.3-5.7-16.1-5.7
			h-12.2v42.6H589.1z M590.3,262c6.4,0,12,1.3,17,3.9c5,2.6,8.8,6.2,11.5,10.9c2.7,4.7,4.1,10,4.1,15.8c0,6-1.4,11.3-4.1,15.9
			c-2.8,4.6-6.7,8.2-11.7,10.7c-5.1,2.5-10.9,3.8-17.5,3.8h-24.9V262H590.3z"/>
		<rect x="650.6" y="262" class="st0" width="11.8" height="61.1"/>
		<polygon class="st0" points="739.2,262 739.2,304.7 702.9,262 692.5,262 692.5,323.1 704.1,323.1 704.1,279.8 740.6,323.1 
			750.7,323.1 750.7,262 		"/>
		<path class="st0" d="M812.6,261.2c7.5,0,15,1.7,22.4,5v10.8c-7.4-3.8-14.7-5.6-21.9-5.6c-4.5,0-8.4,0.9-11.9,2.7
			c-3.5,1.8-6.2,4.3-8.1,7.7c-1.9,3.3-2.9,7.1-2.9,11.2c0,6.2,2.1,11.3,6.2,15.1c4.2,3.8,9.6,5.7,16.4,5.7c1.9,0,3.7-0.2,5.4-0.5
			c1.7-0.3,3.7-0.9,6.1-1.8v-10.1h-10.1V292h21.9v25.2c-3,2.1-6.6,3.7-10.8,4.9c-4.2,1.2-8.6,1.8-13.1,1.8c-6.4,0-12.3-1.3-17.5-4
			c-5.2-2.7-9.3-6.4-12.2-11.2c-2.9-4.8-4.4-10.1-4.4-16c0-6,1.5-11.4,4.4-16.2c3-4.8,7.1-8.6,12.4-11.3
			C800.2,262.6,806.1,261.2,812.6,261.2"/>
	</g>
</g>
</svg>
