<?xml version="1.0" standalone="no"?>
<!DOCTYPE svg PUBLIC "-//W3C//DTD SVG 20010904//EN"
 "http://www.w3.org/TR/2001/REC-SVG-20010904/DTD/svg10.dtd">
<svg version="1.0" xmlns="http://www.w3.org/2000/svg"
 width="700.000000pt" height="700.000000pt" viewBox="0 0 700.000000 700.000000"
 preserveAspectRatio="xMidYMid meet">
<metadata>
Created by potrace 1.14, written by Peter Selinger 2001-2017
</metadata>
<g transform="translate(0.000000,700.000000) scale(0.100000,-0.100000)"
fill="#000000" stroke="none">
<path d="M5637 5704 c-1 -1 -63 -4 -137 -8 -502 -25 -907 -142 -1230 -355 -47
-31 -89 -58 -95 -60 -5 -2 -12 -7 -15 -10 -3 -4 -41 -36 -85 -72 -338 -280
-552 -662 -629 -1122 -28 -168 -29 -533 -1 -682 23 -124 42 -205 72 -300 36
-114 134 -328 184 -403 16 -24 29 -45 29 -48 0 -3 31 -47 69 -97 130 -173 314
-340 506 -457 211 -130 548 -257 778 -295 18 -3 55 -10 82 -15 97 -18 275 -32
430 -33 105 -1 297 9 340 17 11 2 43 7 70 10 199 27 494 110 705 199 209 89
183 67 240 199 27 64 50 123 50 130 0 8 -11 25 -24 37 l-24 23 -63 -47 c-155
-112 -406 -212 -604 -240 -22 -3 -62 -10 -90 -15 -229 -41 -570 -46 -778 -11
-262 45 -605 205 -807 376 -55 46 -202 195 -242 245 -207 257 -345 608 -375
955 -9 100 -8 362 0 435 14 113 17 136 29 190 6 30 12 60 14 65 34 165 142
402 244 540 226 302 527 491 910 570 17 3 76 13 130 21 66 10 395 13 465 4
254 -32 463 -95 654 -199 36 -20 83 -45 104 -56 85 -45 90 -52 93 -151 2 -49
6 -132 8 -184 3 -52 5 -116 5 -142 l1 -46 100 0 100 1 1 41 c0 41 1 53 13 181
19 197 65 431 107 538 11 26 19 49 19 51 0 3 -77 20 -144 33 -11 2 -45 10 -75
17 -31 8 -74 17 -96 22 -22 4 -44 8 -50 10 -162 38 -352 78 -435 89 -24 4 -47
8 -50 10 -3 1 -36 6 -73 10 -37 3 -76 8 -87 10 -28 5 -339 22 -343 19z"/>
<path d="M3269 5576 c-2 -2 -47 -7 -99 -11 -173 -12 -423 -60 -680 -129 -67
-18 -260 -89 -375 -138 -304 -130 -567 -281 -825 -477 -113 -85 -149 -116
-380 -330 l-44 -42 42 -86 c41 -81 42 -85 20 -80 -70 17 -190 30 -196 21 -18
-25 -215 -269 -286 -354 -158 -188 -308 -352 -403 -443 -23 -22 -40 -43 -38
-47 6 -9 184 0 295 15 333 46 706 186 992 371 167 108 380 274 374 291 -3 8
-40 73 -81 144 -41 71 -75 131 -75 134 0 3 17 -2 38 -11 20 -8 97 -40 170 -70
l132 -54 53 39 c55 42 88 70 186 165 66 62 68 72 29 116 -13 14 -47 55 -75 92
l-52 67 47 -14 c26 -8 90 -28 142 -45 52 -16 102 -30 110 -30 8 1 40 23 70 51
30 28 72 65 93 82 22 18 49 40 60 51 12 10 38 30 57 45 19 14 40 31 47 37 24
23 240 163 338 219 102 59 409 210 525 260 36 15 74 31 85 36 52 23 268 99
282 99 29 0 7 11 -33 16 -44 6 -540 15 -545 10z m-84 -126 c-11 -4 -74 -25
-140 -45 -389 -120 -851 -363 -1310 -688 -44 -31 -88 -62 -99 -69 -70 -48
-464 -354 -546 -424 -36 -31 -295 -248 -360 -303 -30 -25 -57 -48 -60 -51 -14
-16 -81 -62 -85 -58 -12 12 223 271 396 433 271 257 649 549 934 722 260 158
552 294 810 378 167 54 390 109 460 112 20 1 20 1 0 -7z"/>
<path d="M4200 5542 c-41 -8 -113 -26 -160 -40 -47 -14 -87 -27 -90 -27 -3 -1
-18 -7 -35 -14 -16 -6 -43 -17 -60 -23 -62 -23 -123 -51 -237 -108 -448 -225
-886 -604 -1238 -1069 -64 -85 -220 -309 -220 -317 0 -2 -15 -27 -34 -56 -135
-213 -296 -549 -407 -852 -33 -87 -59 -163 -59 -168 0 -5 39 -57 87 -116 48
-59 90 -112 95 -118 5 -7 -31 -11 -123 -11 -72 -1 -133 -3 -136 -6 -7 -8 -61
-223 -68 -272 -3 -22 -8 -47 -10 -55 -2 -8 -7 -40 -10 -70 -4 -30 -8 -57 -10
-60 -2 -3 -6 -41 -10 -85 -4 -44 -9 -88 -11 -98 -2 -10 -6 -60 -9 -110 -4 -51
-8 -119 -10 -152 -5 -77 -15 -183 -20 -214 -9 -54 -17 -181 -11 -181 16 0 194
101 293 167 151 99 247 177 374 303 173 172 245 268 398 534 64 111 168 331
160 337 -6 3 -100 32 -210 65 -109 32 -199 62 -199 65 0 4 17 10 38 15 20 4
39 8 42 9 3 1 41 9 85 20 196 44 348 84 355 92 8 9 92 247 136 383 14 47 29
89 31 93 4 7 -107 1 -167 -9 -14 -2 -65 -7 -115 -10 l-90 -6 130 79 c195 119
315 195 315 198 0 10 64 212 85 265 13 36 50 133 81 215 31 83 65 170 76 195
32 70 96 202 112 230 8 14 40 70 72 125 51 89 171 272 199 301 5 6 30 36 55
65 120 143 248 252 474 403 87 58 153 105 145 105 -8 -1 -48 -8 -89 -17z
m-780 -504 c-63 -62 -143 -144 -177 -183 -34 -38 -75 -86 -93 -105 -17 -19
-85 -107 -151 -195 -65 -88 -123 -164 -127 -170 -22 -30 -177 -272 -217 -340
-16 -27 -35 -59 -42 -70 -7 -11 -16 -27 -20 -35 -4 -8 -22 -42 -41 -75 -93
-163 -242 -475 -333 -695 -33 -80 -64 -154 -69 -165 -20 -45 -92 -248 -130
-365 -22 -69 -52 -161 -66 -205 -28 -84 -124 -298 -131 -291 -3 2 3 40 11 83
23 113 25 120 45 203 7 25 14 55 16 67 27 124 167 551 249 763 80 203 78 200
203 450 258 517 530 894 859 1190 90 82 308 250 324 250 2 0 -47 -51 -110
-112z"/>
</g>
</svg>
