<?xml version="1.0" encoding="UTF-8"?>
<svg id="Layer_1" data-name="Layer 1" xmlns="http://www.w3.org/2000/svg" viewBox="0 0 360 143.19">
  <defs>
    <style>
      .cls-1 {
        fill: #fff;
        stroke-width: 0px;
      }
    </style>
  </defs>
  <g>
    <g>
      <g>
        <path class="cls-1" d="M74.33,11.49l-.24-5.37c-1.79-1.19-3.67-2.07-5.63-2.65s-4.01-.87-6.14-.87c-5.43,0-9.78,1.65-13.05,4.95-3.27,3.3-4.9,7.71-4.9,13.24,0,3.88.83,7.34,2.49,10.38s4.02,5.44,7.07,7.21c3.06,1.77,6.28,2.65,9.68,2.65,2.69,0,5.36-.31,7.99-.94,1.97-.46,3.95-1.43,5.94-2.9l.63.6c-.42.92-.81,1.86-1.18,2.81-2.35,1.17-4.72,2.05-7.1,2.64-2.38.59-4.78.89-7.19.89-4.95,0-9.3-.95-13.05-2.87s-6.63-4.55-8.64-7.92c-2.01-3.37-3.02-7.17-3.02-11.42s1.02-8.04,3.05-11.39c2.03-3.35,4.9-5.94,8.61-7.78,3.71-1.84,8.27-2.76,13.68-2.76,2.84,0,6.15.46,9.95,1.39,1.89.44,3.43.77,4.62.99-.91,2.15-1.43,5.19-1.57,9.11h-2.02Z"/>
        <path class="cls-1" d="M97.19,26.23v6.82c0,1.17.04,2.55.12,4.13.1,2.22.18,3.44.24,3.68.06.24.3.48.71.72.41.24,1.07.37,1.98.37h1.66v1.54c-2.12-.11-4.16-.17-6.13-.17s-4.63.06-8.18.17v-1.54h1.51c1.71,0,2.72-.29,3.03-.87.31-.58.46-3.23.46-7.94v-14.72c0-4.26-.16-6.68-.48-7.26-.32-.58-1.22-.87-2.72-.87h-1.81v-1.54c2.68.11,5.18.17,7.49.17s4.6-.06,6.81-.17v1.54h-1.05c-1.51,0-2.45.12-2.81.37-.36.24-.58.64-.66,1.2-.13.9-.2,3.07-.2,6.53v5.57c2.9.11,6.58.17,11.06.17,3.79,0,6.87-.06,9.25-.17v-4.77c0-2.79-.1-5.13-.29-7.02-.07-.67-.28-1.15-.66-1.44-.37-.29-1.14-.44-2.29-.44h-1.76v-1.54c2.49.11,4.85.17,7.08.17,2.41,0,4.91-.06,7.52-.17v1.54h-1.85c-1.25,0-2.05.14-2.4.41-.35.28-.56.79-.63,1.53-.07.74-.11,3.07-.11,6.99v13.5c0,4.99.14,7.78.43,8.36.28.58,1.18.87,2.67.87h1.9v1.54c-2.25-.11-4.56-.17-6.96-.17-2.73,0-5.28.06-7.64.17v-1.54h1.68c1.24,0,2.03-.14,2.39-.43s.58-.82.66-1.6c.18-1.68.27-4.12.27-7.33v-6.36c-2.29-.11-5.22-.17-8.79-.17-5.08,0-8.92.06-11.52.17Z"/>
        <path class="cls-1" d="M138.59,26.11c0-5.35,1.73-9.66,5.18-12.93,3.45-3.27,8.05-4.9,13.8-4.9s10.05,1.52,13.25,4.55c3.2,3.03,4.8,7.07,4.8,12.09,0,5.42-1.86,9.95-5.57,13.59-3.71,3.64-8.39,5.47-14.04,5.47-3.53,0-6.58-.72-9.13-2.15-2.56-1.43-4.57-3.52-6.06-6.27-1.48-2.75-2.22-5.9-2.22-9.44ZM143.54,24.11c0,3.68.63,6.88,1.89,9.6,1.26,2.73,2.95,4.77,5.07,6.13,2.12,1.36,4.54,2.04,7.26,2.04,2.52,0,4.73-.58,6.62-1.73,1.89-1.16,3.37-2.88,4.46-5.17s1.62-5.08,1.62-8.37c0-3.45-.6-6.4-1.8-8.85-1.2-2.45-2.84-4.29-4.92-5.53-2.08-1.24-4.55-1.85-7.4-1.85-2.61,0-4.85.55-6.74,1.64-1.89,1.09-3.37,2.69-4.45,4.8-1.07,2.11-1.61,4.54-1.61,7.31Z"/>
        <path class="cls-1" d="M218.3,17.57l-.2-4.34c-1.45-.96-2.97-1.68-4.55-2.15-1.59-.47-3.24-.71-4.97-.71-4.39,0-7.91,1.33-10.55,4-2.64,2.67-3.97,6.24-3.97,10.71,0,3.14.67,5.94,2.01,8.4,1.34,2.46,3.25,4.4,5.72,5.83,2.47,1.43,5.08,2.15,7.83,2.15,2.18,0,4.34-.25,6.47-.76,1.59-.37,3.2-1.15,4.81-2.34l.51.49c-.34.75-.66,1.5-.95,2.27-1.9.94-3.82,1.66-5.75,2.14-1.93.48-3.87.72-5.82.72-4,0-7.52-.77-10.55-2.32-3.03-1.55-5.37-3.68-6.99-6.41-1.63-2.72-2.44-5.8-2.44-9.24s.82-6.5,2.46-9.21c1.64-2.71,3.97-4.81,6.97-6.3,3-1.49,6.69-2.23,11.07-2.23,2.29,0,4.98.37,8.05,1.12,1.53.36,2.77.63,3.73.81-.73,1.74-1.16,4.2-1.27,7.37h-1.63Z"/>
        <path class="cls-1" d="M248.32,10.98c-.18,2.44-.27,5.01-.27,7.71v13.91c0,5.17.13,8.03.39,8.55.26.53,1.19.79,2.78.79h1.83v1.54c-2.88-.11-5.32-.17-7.32-.17s-4.44.06-7.27.17v-1.54h2.05c1.07,0,1.77-.14,2.1-.43.33-.28.53-.84.61-1.67.16-1.9.24-4.36.24-7.37v-13.93c0-2.75-.06-5.27-.17-7.57h-2.48c-4.01,0-6.22.09-6.62.28-.41.19-.67.92-.8,2.18l-.34,3.27h-1.54l.05-2.9c0-1.17-.1-2.86-.29-5.05,8.79.11,13.95.17,15.5.17l13.5-.17c-.31,2.75-.49,5.4-.54,7.96h-1.54l-.24-3.2c-.1-1.11-.24-1.76-.41-1.96-.18-.2-.58-.33-1.2-.38-1.79-.13-3.82-.2-6.1-.2h-1.9Z"/>
        <path class="cls-1" d="M291.27,31.77h-14.12l-1.65,3.93c-1.09,2.6-1.64,4.2-1.64,4.78,0,.37.1.64.31.81.2.16.72.29,1.55.39l2.34.27v1.54c-1.56-.11-3.32-.17-5.27-.17-2.34,0-4.4.06-6.17.17v-1.54l.73-.02c1.14-.03,1.87-.15,2.21-.35.33-.2.69-.7,1.06-1.5,1.15-2.34,2.33-4.87,3.54-7.59l6.71-15.2c1.79-4.03,3.01-6.96,3.66-8.79h1.66l12.35,28.72c.83,1.95,1.38,3.13,1.66,3.53.28.4.59.68.95.85.36.17,1.16.29,2.42.35v1.54c-2.11-.11-4.13-.17-6.05-.17-1.79,0-4.17.06-7.15.17v-1.54l2.42-.15c.86-.06,1.37-.15,1.54-.27.24-.18.37-.41.37-.68,0-.29-.24-1.06-.73-2.29l-2.68-6.78ZM278.06,29.77h12.29l-6.14-14.66-6.15,14.66Z"/>
        <path class="cls-1" d="M324.82,36.07l5.67-13.96c.96-2.39,2.71-6.95,5.23-13.67h1.49c.96,3.01,2.26,6.82,3.89,11.42l5.9,16.55,4.47-15.45c.42-1.48,1.16-4.33,2.2-8.54.1-.37.15-.68.15-.93,0-.29-.12-.51-.37-.66-.24-.15-.85-.27-1.81-.37l-2.22-.17v-1.54c2.29.11,4.08.17,5.38.17,1.4,0,3.13-.06,5.19-.17v1.54h-1.27c-.55,0-.97.13-1.24.39-.52.54-1.76,3.95-3.71,10.24-2.58,8.4-4.72,16.05-6.43,22.95h-2.49c-.29-1.09-.54-1.9-.74-2.44-.72-2.1-2.39-6.72-5-13.86l-4.02-10.98-4.56,11.05c-2.73,6.61-4.76,12.02-6.08,16.23h-2.45l-1.3-6c-.36-1.77-.78-3.66-1.25-5.66l-4.26-18.26c-.41-1.79-.77-2.85-1.1-3.17-.33-.33-1-.49-2.03-.49h-1.03v-1.54c2.33.11,4.34.17,6.03.17s3.86-.06,6.66-.17v1.54h-1.54c-1.11,0-1.83.1-2.16.29-.33.2-.5.51-.5.95,0,.26.04.56.12.9l1.69,8.1,3.47,15.52Z"/>
      </g>
      <path class="cls-1" d="M48.13,1.38c-.57.09-1.32.23-2.19.44-1.1.27-4.87,1.28-9.73,4.66-.97.68-4.97,3.52-9.04,8.6-4.25,5.3-6.27,10.17-7.41,12.92-.48,1.16-.92,2.39-1.28,3.48l2.2,2.71-3.02-.05c-.1.37-.16.58-.16.58-.41,1.54-.68,2.87-.82,3.91-.37,2.65-.49,4.59-.49,4.59-.04.75-.06,1.44-.16,2.58-.1,1.21-.23,2.21-.32,2.87,0,.02.02.03.03.02,2.76-1.28,6.41-3.63,9.45-7.43,1.55-1.93,3.35-5.4,4.14-7.05.08-.17.17-.36.26-.57l-4.88-1.46,6.01-1.4c.68-1.84,1.39-3.91,1.9-5.54l-4.18.43,4.96-3.12c.5-1.87,1.08-3.43,1.08-3.43.87-2.42,1.6-4.47,2.9-6.85,1.41-2.59,3.9-7.01,8.88-9.9.73-.42,1.38-.73,1.86-.95.03-.01.02-.05-.01-.05ZM39.81,5.69c-3.7,3.33-6.75,7.19-9.36,11.44-2.95,4.81-5.39,10-7.31,15.31-.51,1.42-.92,2.87-1.45,4.29-.24.64-.5,1.28-.78,1.91-.08.17-.28.65-.51,1.02-.02.03-.06.01-.06-.02.4-2.32.99-4.64,1.67-6.89.86-2.87,1.9-5.7,3.14-8.43,2.17-4.78,4.91-9.37,8.42-13.29,1.83-2.04,3.89-3.87,6.18-5.38.03-.02.07.02.04.05Z"/>
      <path class="cls-1" d="M18.75,17.34l-1.93-3.26,3.91,1.62c.45-.38.76-.65.76-.65.66-.58,1.29-1.16,2.41-2.17.03-.03.1-.09.18-.16l-1.87-2.43,3.38,1.09c.71-.63,1.38-1.23,1.47-1.3,3.65-3.15,7.48-5.08,9.04-5.85,1.79-.89,4.17-1.92,7.08-2.82.03,0,.02-.05,0-.05-3.68-.4-8.38-.4-13.6.86-2.62.63-10.05,2.91-16.85,8.71-1.12.96-2.11,1.88-3,2.8l.86,1.91-2.29-.36c-.73.84-1.41,1.69-2.08,2.57,0,0-3.51,4.44-6.2,6.87-.04.03-.01.1.04.1,1.42,0,3.28-.13,5.4-.6.5-.11,2.76-.62,5.56-1.91,3.07-1.41,4.97-2.9,6.84-4.27.25-.19.56-.43.9-.7ZM8.34,19.45c-.48.4-.95.81-1.43,1.21,0,0-.19.16-.43.34-.04.03-.08-.02-.06-.06,1.21-1.62,2.64-3.09,4.1-4.49,1.8-1.73,3.69-3.38,5.67-4.9,4.03-3.1,8.5-5.76,13.28-7.52,2-.74,4.06-1.26,6.17-1.57.05,0,.07.07.02.08-4.53,1.21-8.74,3.29-12.71,5.78-4,2.52-7.81,5.4-11.43,8.43-1.07.89-2.13,1.79-3.19,2.69Z"/>
    </g>
    <rect class="cls-1" x="120.16" y="61.17" width="160.05" height=".95"/>
    <g>
      <path class="cls-1" d="M88.62,128.11c.83,0,1.65.09,2.45.28.8.19,1.66.51,2.59.97v2.67c-.9-.52-1.74-.89-2.51-1.13-.77-.23-1.57-.35-2.4-.35-1.04,0-1.99.22-2.83.65-.84.43-1.5,1.04-1.96,1.83-.47.79-.7,1.66-.7,2.62s.23,1.86.69,2.64,1.12,1.38,1.96,1.8c.84.42,1.79.64,2.84.64.81,0,1.58-.12,2.31-.35.73-.23,1.66-.65,2.77-1.25v2.67c-.95.5-1.83.85-2.63,1.06-.8.21-1.73.32-2.8.32-1.55,0-2.93-.31-4.15-.93-1.22-.62-2.18-1.5-2.88-2.67-.7-1.16-1.05-2.43-1.05-3.81,0-1.48.36-2.81,1.08-3.99s1.71-2.09,2.97-2.72c1.26-.64,2.68-.96,4.25-.96Z"/>
      <path class="cls-1" d="M107.42,128.3l6.49,14.69h-3l-1.53-3.58h-6.53l-1.42,3.58h-2.98l6.06-14.69h2.9ZM103.72,137.26h4.74l-2.48-5.82-2.26,5.82Z"/>
      <path class="cls-1" d="M123.77,128.11c1.43,0,2.81.36,4.13,1.07v2.52c-1.52-.92-2.87-1.38-4.05-1.38-.72,0-1.27.14-1.68.42-.4.28-.6.65-.6,1.11,0,.55.38,1.07,1.12,1.54.21.14,1.02.53,2.43,1.18,1.21.57,2.08,1.2,2.61,1.89.53.69.8,1.53.8,2.5,0,1.26-.45,2.28-1.36,3.06-.91.77-2.08,1.16-3.53,1.16-.94,0-1.75-.1-2.42-.31-.68-.21-1.44-.56-2.28-1.07v-2.8c1.57,1.3,3.05,1.96,4.44,1.96.69,0,1.25-.15,1.68-.45.43-.3.64-.7.64-1.2,0-.68-.37-1.23-1.11-1.66-.62-.34-1.41-.74-2.39-1.21-1.16-.53-2.02-1.14-2.59-1.84s-.86-1.51-.86-2.44c0-1.23.46-2.22,1.38-2.95s2.13-1.1,3.64-1.1Z"/>
      <path class="cls-1" d="M138.23,128.3v14.69h-2.84v-14.69h2.84Z"/>
      <path class="cls-1" d="M147.9,128.3l8.73,10.25v-10.25h2.78v14.69h-2.44l-8.78-10.42v10.42h-2.78v-14.69h2.49Z"/>
      <path class="cls-1" d="M173.62,128.11c1.52,0,2.89.31,4.11.94,1.22.63,2.19,1.53,2.91,2.71.72,1.18,1.08,2.48,1.08,3.89s-.35,2.65-1.06,3.82c-.71,1.17-1.67,2.09-2.9,2.73s-2.62.97-4.16.97-2.91-.33-4.15-.99c-1.25-.66-2.21-1.57-2.91-2.72s-1.04-2.43-1.04-3.82.35-2.61,1.04-3.8c.69-1.19,1.65-2.11,2.87-2.76,1.22-.66,2.62-.98,4.21-.98ZM168.43,135.65c0,.97.22,1.85.66,2.63s1.06,1.38,1.85,1.81,1.68.64,2.68.64c1.51,0,2.75-.47,3.72-1.42.97-.95,1.46-2.17,1.46-3.66,0-.97-.22-1.85-.66-2.63-.44-.78-1.06-1.39-1.85-1.81s-1.69-.64-2.69-.64-1.89.22-2.69.65c-.8.43-1.41,1.03-1.84,1.81-.43.77-.64,1.65-.64,2.63Z"/>
      <path class="cls-1" d="M199.42,128.3c1.12,0,2.06.32,2.8.95.75.63,1.12,1.45,1.12,2.43,0,.72-.22,1.38-.67,2s-1.13,1.23-2.05,1.83l2.02,2.33c.6-.6,1.14-1.38,1.64-2.33h2.67c-.7,1.68-1.6,3.06-2.69,4.14l2.96,3.33h-3.67l-1.36-1.55c-.74.62-1.46,1.06-2.15,1.33-.69.27-1.52.41-2.48.41-1.19,0-2.18-.36-3-1.07-.81-.72-1.22-1.59-1.22-2.63,0-.86.29-1.64.88-2.32.59-.68,1.42-1.32,2.5-1.9-.51-.64-.89-1.23-1.12-1.75s-.36-1.05-.36-1.59c0-1.07.39-1.94,1.17-2.61.78-.67,1.78-1,3-1ZM196.19,139.29c0,.47.18.87.54,1.19.36.32.79.48,1.29.48.84,0,1.73-.41,2.67-1.22l-2.52-2.83c-.62.39-1.1.78-1.45,1.15-.35.38-.53.78-.53,1.23ZM197.92,131.71c0,.32.13.7.39,1.12.26.42.56.79.9,1.1.51-.32.92-.63,1.22-.96.3-.32.45-.7.45-1.14,0-.4-.14-.73-.42-1-.28-.27-.64-.4-1.08-.4-.39,0-.73.12-1.03.36s-.44.54-.44.92Z"/>
      <path class="cls-1" d="M224.74,128.3c1.38,0,2.51.38,3.38,1.15.87.76,1.3,1.76,1.3,2.99,0,.83-.22,1.56-.65,2.18-.43.62-1.07,1.11-1.92,1.47.47.25.89.6,1.25,1.03.37.43.82,1.17,1.36,2.2.9,1.78,1.56,3.01,2,3.68h-3.17c-.22-.32-.51-.84-.88-1.55-.81-1.56-1.41-2.62-1.79-3.16-.38-.54-.74-.93-1.09-1.16-.35-.23-.75-.34-1.21-.34h-1.03v6.21h-2.84v-14.69h5.29ZM224.1,134.57c.74,0,1.33-.19,1.75-.56.42-.37.64-.88.64-1.53s-.21-1.18-.63-1.51c-.42-.33-1.02-.5-1.8-.5h-1.77v4.09h1.81Z"/>
      <path class="cls-1" d="M246.7,128.3v2.22h-6.66v3.86h6.37v2.22h-6.37v4.18h6.8v2.22h-9.64v-14.69h9.5Z"/>
      <path class="cls-1" d="M257.64,128.11c1.43,0,2.81.36,4.13,1.07v2.52c-1.52-.92-2.87-1.38-4.05-1.38-.72,0-1.27.14-1.68.42-.4.28-.6.65-.6,1.11,0,.55.38,1.07,1.12,1.54.21.14,1.02.53,2.43,1.18,1.21.57,2.08,1.2,2.61,1.89.53.69.8,1.53.8,2.5,0,1.26-.45,2.28-1.36,3.06-.91.77-2.08,1.16-3.53,1.16-.94,0-1.75-.1-2.42-.31-.68-.21-1.44-.56-2.28-1.07v-2.8c1.57,1.3,3.05,1.96,4.44,1.96.69,0,1.25-.15,1.68-.45.43-.3.64-.7.64-1.2,0-.68-.37-1.23-1.11-1.66-.62-.34-1.41-.74-2.39-1.21-1.16-.53-2.02-1.14-2.59-1.84s-.86-1.51-.86-2.44c0-1.23.46-2.22,1.38-2.95s2.13-1.1,3.64-1.1Z"/>
      <path class="cls-1" d="M276.29,128.11c1.52,0,2.89.31,4.11.94,1.22.63,2.19,1.53,2.91,2.71.72,1.18,1.08,2.48,1.08,3.89s-.35,2.65-1.06,3.82c-.71,1.17-1.67,2.09-2.9,2.73s-2.62.97-4.16.97-2.91-.33-4.15-.99c-1.25-.66-2.21-1.57-2.91-2.72s-1.04-2.43-1.04-3.82.35-2.61,1.04-3.8c.69-1.19,1.65-2.11,2.87-2.76,1.22-.66,2.62-.98,4.21-.98ZM271.11,135.65c0,.97.22,1.85.66,2.63s1.06,1.38,1.85,1.81,1.68.64,2.68.64c1.51,0,2.75-.47,3.72-1.42.97-.95,1.46-2.17,1.46-3.66,0-.97-.22-1.85-.66-2.63-.44-.78-1.06-1.39-1.85-1.81s-1.69-.64-2.69-.64-1.89.22-2.69.65c-.8.43-1.41,1.03-1.84,1.81-.43.77-.64,1.65-.64,2.63Z"/>
      <path class="cls-1" d="M296.22,128.3c1.38,0,2.51.38,3.38,1.15.87.76,1.3,1.76,1.3,2.99,0,.83-.22,1.56-.65,2.18-.43.62-1.07,1.11-1.92,1.47.47.25.89.6,1.25,1.03.37.43.82,1.17,1.36,2.2.9,1.78,1.56,3.01,2,3.68h-3.17c-.22-.32-.51-.84-.88-1.55-.81-1.56-1.41-2.62-1.79-3.16-.38-.54-.74-.93-1.09-1.16-.35-.23-.75-.34-1.21-.34h-1.03v6.21h-2.84v-14.69h5.29ZM295.58,134.57c.74,0,1.33-.19,1.75-.56.42-.37.64-.88.64-1.53s-.21-1.18-.63-1.51c-.42-.33-1.02-.5-1.8-.5h-1.77v4.09h1.81Z"/>
      <path class="cls-1" d="M320.87,128.3v2.22h-5.22v12.47h-2.84v-12.47h-5.22v-2.22h13.27Z"/>
    </g>
    <g>
      <polygon class="cls-1" points="106.89 80.06 106.89 102.53 122.14 102.53 122.14 99.14 111.23 99.14 111.23 80.06 106.89 80.06"/>
      <path class="cls-1" d="M140.33,84.87l3.8,8.9h-7.26l3.46-8.9ZM138.09,80.06l-9.26,22.47h4.55l2.17-5.47h9.99l2.33,5.47h4.58l-9.92-22.47h-4.44Z"/>
      <polygon class="cls-1" points="178.29 80.06 178.29 95.75 164.94 80.06 161.12 80.06 161.12 102.53 165.37 102.53 165.37 86.6 178.8 102.53 182.53 102.53 182.53 80.06 178.29 80.06"/>
      <path class="cls-1" d="M202.46,99.14c2.4,0,4.33-.72,5.78-2.16,1.45-1.44,2.18-3.33,2.18-5.67s-.73-4.34-2.2-5.74c-1.46-1.41-3.43-2.11-5.91-2.11h-4.47v15.68h4.62ZM202.91,80.06c2.34,0,4.42.48,6.24,1.43,1.82.95,3.24,2.3,4.25,4.02,1.01,1.73,1.51,3.67,1.51,5.82s-.51,4.15-1.52,5.85c-1.01,1.7-2.45,3.02-4.32,3.95-1.86.93-4,1.4-6.42,1.4h-9.15v-22.47h9.41Z"/>
      <rect class="cls-1" x="225.08" y="80.06" width="4.34" height="22.47"/>
      <polygon class="cls-1" points="257.67 80.06 257.67 95.75 244.32 80.06 240.51 80.06 240.51 102.53 244.75 102.53 244.75 86.6 258.18 102.53 261.92 102.53 261.92 80.06 257.67 80.06"/>
      <path class="cls-1" d="M284.67,79.78c2.77,0,5.51.62,8.24,1.85v3.97c-2.72-1.38-5.4-2.07-8.04-2.07-1.64,0-3.1.33-4.38.98-1.28.65-2.27,1.6-2.97,2.82-.7,1.23-1.05,2.6-1.05,4.11,0,2.3.76,4.14,2.29,5.54,1.53,1.4,3.54,2.1,6.04,2.1.69,0,1.34-.06,1.97-.18.63-.12,1.37-.34,2.24-.68v-3.73h-3.72v-3.39h8.06v9.27c-1.1.77-2.43,1.38-3.98,1.81-1.55.43-3.16.65-4.83.65-2.37,0-4.52-.49-6.44-1.46-1.93-.98-3.43-2.34-4.5-4.1-1.08-1.76-1.62-3.72-1.62-5.89s.54-4.19,1.63-5.97c1.09-1.78,2.61-3.16,4.55-4.15,1.95-.99,4.11-1.48,6.51-1.48"/>
    </g>
  </g>
  <rect class="cls-1" x="120.16" y="61.17" width="160.05" height=".95"/>
</svg>