<svg id="Group_52" data-name="Group 52" xmlns="http://www.w3.org/2000/svg" xmlns:xlink="http://www.w3.org/1999/xlink" width="261.401" height="104.049" viewBox="0 0 261.401 104.049">
  <defs>
    <clipPath id="clip-path">
      <rect id="Rectangle_43" data-name="Rectangle 43" width="261.401" height="104.049" fill="none"/>
    </clipPath>
  </defs>
  <g id="Group_51" data-name="Group 51" clip-path="url(#clip-path)">
    <path id="Path_35" data-name="Path 35" d="M129.72,8.357l-.16-3.9a15.805,15.805,0,0,0-4.085-1.922,15.389,15.389,0,0,0-4.459-.641,12.719,12.719,0,0,0-9.478,3.6,13.064,13.064,0,0,0-3.551,9.612,15.4,15.4,0,0,0,1.816,7.529,13.407,13.407,0,0,0,5.126,5.233,13.838,13.838,0,0,0,7.022,1.922,24.894,24.894,0,0,0,5.794-.667,12.218,12.218,0,0,0,4.325-2.109l.454.427c-.294.667-.587,1.362-.854,2.029a24.688,24.688,0,0,1-5.153,1.922,21.765,21.765,0,0,1-5.233.641,20.569,20.569,0,0,1-9.478-2.083,15.221,15.221,0,0,1-6.274-5.74,15.787,15.787,0,0,1-2.189-8.277,15.738,15.738,0,0,1,2.216-8.277A14.786,14.786,0,0,1,111.8,2a22.245,22.245,0,0,1,9.932-2,31.613,31.613,0,0,1,7.236,1.015q2.043.481,3.364.721a19.334,19.334,0,0,0-1.148,6.622Z" transform="translate(-75.749)" fill="#fff"/>
    <path id="Path_36" data-name="Path 36" d="M245.21,36.509v4.939c0,.854.027,1.842.08,2.99.08,1.6.134,2.51.187,2.67a1.151,1.151,0,0,0,.507.534,2.813,2.813,0,0,0,1.442.267h1.2v1.121c-1.549-.08-3.017-.133-4.459-.133-1.388,0-3.364.053-5.927.133V47.91h1.095c1.228,0,1.976-.214,2.189-.641s.347-2.35.347-5.767V30.822c0-3.1-.107-4.859-.347-5.26-.24-.427-.881-.641-1.976-.641h-1.308V23.8c1.949.08,3.765.133,5.447.133s3.337-.053,4.939-.133v1.121h-.774a4.344,4.344,0,0,0-2.029.267,1.16,1.16,0,0,0-.481.881,43.264,43.264,0,0,0-.133,4.753V34.88c2.109.08,4.779.133,8.037.133,2.75,0,4.993-.053,6.728-.133V31.409c0-2.029-.08-3.711-.214-5.1a1.478,1.478,0,0,0-.481-1.041,2.908,2.908,0,0,0-1.655-.32h-1.282V23.827c1.816.08,3.524.133,5.126.133,1.735,0,3.578-.053,5.447-.133v1.121h-1.335a3.307,3.307,0,0,0-1.735.294,1.5,1.5,0,0,0-.454,1.095c-.053.534-.08,2.243-.08,5.073v9.8c0,3.631.107,5.66.32,6.061.214.427.854.641,1.949.641h1.388v1.121c-1.629-.08-3.311-.133-5.046-.133-1.976,0-3.845.053-5.554.133V47.91H257.6a3.049,3.049,0,0,0,1.735-.32,1.611,1.611,0,0,0,.481-1.175c.134-1.228.187-2.99.187-5.313V36.482c-1.655-.08-3.791-.133-6.381-.133-3.738.053-6.515.08-8.41.16" transform="translate(-174.631 -17.445)" fill="#fff"/>
    <path id="Path_37" data-name="Path 37" d="M376.941,35.549a12.328,12.328,0,0,1,3.765-9.4c2.51-2.376,5.847-3.551,10.012-3.551,4.085,0,7.289,1.095,9.612,3.311a11.562,11.562,0,0,1,3.5,8.784,13.287,13.287,0,0,1-4.032,9.879,13.971,13.971,0,0,1-10.2,3.978A13.272,13.272,0,0,1,382.975,47a11.183,11.183,0,0,1-4.405-4.566,14.268,14.268,0,0,1-1.629-6.889m3.578-1.442a16.556,16.556,0,0,0,1.362,6.969,10.119,10.119,0,0,0,3.685,4.459A9.518,9.518,0,0,0,390.825,47a9.077,9.077,0,0,0,4.806-1.255,8.361,8.361,0,0,0,3.231-3.765,14.305,14.305,0,0,0,1.175-6.088,14.409,14.409,0,0,0-1.308-6.435,9.072,9.072,0,0,0-3.578-4,10.268,10.268,0,0,0-5.367-1.335A9.732,9.732,0,0,0,384.9,25.3a8.306,8.306,0,0,0-3.231,3.471,12.088,12.088,0,0,0-1.148,5.34" transform="translate(-276.299 -16.566)" fill="#fff"/>
    <path id="Path_38" data-name="Path 38" d="M535.322,29.355l-.134-3.151a11.672,11.672,0,0,0-3.311-1.549,12.379,12.379,0,0,0-3.6-.507,10.283,10.283,0,0,0-7.663,2.91,10.583,10.583,0,0,0-2.884,7.77,12.377,12.377,0,0,0,1.469,6.088,10.791,10.791,0,0,0,4.165,4.245,11.114,11.114,0,0,0,5.687,1.549,20.01,20.01,0,0,0,4.7-.561,9.425,9.425,0,0,0,3.5-1.709l.374.347c-.24.534-.48,1.095-.694,1.655a20.289,20.289,0,0,1-4.165,1.549,17.4,17.4,0,0,1-4.219.534,16.617,16.617,0,0,1-7.663-1.682A12.073,12.073,0,0,1,515.8,42.2a12.883,12.883,0,0,1-1.762-6.7,12.654,12.654,0,0,1,1.789-6.7,11.957,11.957,0,0,1,5.046-4.566,18.18,18.18,0,0,1,8.037-1.629,24.5,24.5,0,0,1,5.847.828c1.121.267,2,.454,2.723.587a16.16,16.16,0,0,0-.934,5.34Z" transform="translate(-376.794 -16.566)" fill="#fff"/>
    <path id="Path_39" data-name="Path 39" d="M641.4,25.5c-.133,1.762-.187,3.631-.187,5.607V41.2c0,3.765.107,5.821.294,6.221.187.374.854.587,2.029.587h1.335v1.121C642.791,49.051,641,49,639.561,49c-1.469,0-3.231.053-5.287.133V48.01h1.5a2.459,2.459,0,0,0,1.522-.32,1.949,1.949,0,0,0,.454-1.2c.107-1.388.187-3.177.187-5.34V31c0-2-.053-3.818-.134-5.5h-1.816a25.867,25.867,0,0,0-4.806.214c-.294.133-.481.667-.587,1.575l-.24,2.376h-1.121l.027-2.109c0-.854-.08-2.083-.214-3.658,6.381.08,10.119.133,11.241.133l9.8-.133q-.32,3-.4,5.767h-1.121l-.187-2.323a3.337,3.337,0,0,0-.294-1.415,1.265,1.265,0,0,0-.881-.267c-1.308-.107-2.777-.133-4.432-.133H641.4Z" transform="translate(-461.089 -17.519)" fill="#fff"/>
    <path id="Path_40" data-name="Path 40" d="M743.031,40.1H732.778l-1.2,2.857a13.85,13.85,0,0,0-1.175,3.471.787.787,0,0,0,.214.587,3.138,3.138,0,0,0,1.121.294l1.709.187v1.121c-1.121-.08-2.4-.133-3.818-.133-1.709,0-3.2.053-4.486.133V47.5l.534-.027a3.645,3.645,0,0,0,1.6-.267,2.6,2.6,0,0,0,.774-1.095c.828-1.709,1.682-3.551,2.563-5.5L735.5,29.581c1.308-2.937,2.189-5.046,2.67-6.381h1.2l8.971,20.852a26.832,26.832,0,0,0,1.2,2.563,1.657,1.657,0,0,0,.694.614A5.666,5.666,0,0,0,752,47.5v1.121c-1.549-.08-2.99-.133-4.405-.133-1.309,0-3.017.053-5.18.133V47.5l1.762-.107A3.721,3.721,0,0,0,745.3,47.2a.579.579,0,0,0,.267-.507,7.247,7.247,0,0,0-.534-1.655Zm-9.585-1.442h8.918L737.9,28.006Z" transform="translate(-531.531 -17.006)" fill="#fff"/>
    <path id="Path_41" data-name="Path 41" d="M855.853,43.078l4.112-10.146c.694-1.735,1.976-5.046,3.791-9.932h1.095c.694,2.189,1.629,4.939,2.83,8.3l4.272,12.015L875.211,32.1c.32-1.068.828-3.151,1.6-6.194a2.417,2.417,0,0,0,.107-.667.508.508,0,0,0-.267-.481,4.33,4.33,0,0,0-1.308-.267l-1.6-.133V23.24c1.655.08,2.964.133,3.9.133,1.015,0,2.269-.053,3.765-.133v1.121h-.935a1.323,1.323,0,0,0-.908.294c-.374.4-1.282,2.857-2.7,7.449q-2.8,9.131-4.672,16.661h-1.816c-.214-.8-.4-1.388-.534-1.762-.534-1.522-1.735-4.886-3.631-10.066l-2.91-7.983-3.311,8.037q-2.964,7.209-4.405,11.775H853.8l-.935-4.352c-.267-1.282-.561-2.67-.908-4.112l-3.1-13.243a5.956,5.956,0,0,0-.8-2.3,2.135,2.135,0,0,0-1.469-.347h-.748V23.294c1.682.08,3.151.133,4.379.133,1.2,0,2.8-.053,4.833-.133v1.121h-1.121a3.84,3.84,0,0,0-1.575.214.745.745,0,0,0-.374.694,3.446,3.446,0,0,0,.08.667l1.228,5.874Z" transform="translate(-620.004 -16.859)" fill="#fff"/>
    <path id="Path_42" data-name="Path 42" d="M66.51,3.8a13.726,13.726,0,0,0-1.575.32,21.227,21.227,0,0,0-7.049,3.391,32.669,32.669,0,0,0-6.568,6.248,36.2,36.2,0,0,0-5.367,9.372c-.347.854-.667,1.735-.934,2.536l1.6,1.976-2.189-.027a3.872,3.872,0,0,0-.107.427,25.754,25.754,0,0,0-.587,2.83c-.267,1.922-.347,3.337-.347,3.337-.027.561-.053,1.041-.107,1.869-.08.881-.16,1.6-.24,2.083,0,.027,0,.027.027.027A19.608,19.608,0,0,0,49.93,32.8a32.249,32.249,0,0,0,3.017-5.126c.053-.133.133-.267.187-.4L49.582,26.2l4.352-1.015c.507-1.335,1.015-2.83,1.388-4.032l-3.044.32,3.6-2.269c.374-1.362.774-2.483.774-2.483a33.375,33.375,0,0,1,2.109-4.966A17.327,17.327,0,0,1,65.2,4.574a13.319,13.319,0,0,1,1.335-.694c0-.053,0-.08-.027-.08M60.476,6.951a37.546,37.546,0,0,0-6.782,8.3,61.467,61.467,0,0,0-5.313,11.107c-.374,1.041-.667,2.083-1.041,3.124-.187.481-.374.934-.561,1.388a6.361,6.361,0,0,1-.374.748c-.027.027-.053,0-.053-.027a45.3,45.3,0,0,1,1.2-4.993,49.373,49.373,0,0,1,2.269-6.114,37.82,37.82,0,0,1,6.114-9.639,23.067,23.067,0,0,1,4.486-3.9c.027-.053.053-.027.053,0" transform="translate(-31.549 -2.785)" fill="#fff"/>
    <path id="Path_43" data-name="Path 43" d="M13.627,14.982l-1.388-2.376,2.8,1.2c.32-.267.561-.481.561-.481.481-.427.934-.854,1.762-1.575.027-.027.08-.053.133-.107L16.137,9.883l2.456.8c.507-.454,1.015-.881,1.068-.934A30.954,30.954,0,0,1,26.23,5.5a36.861,36.861,0,0,1,5.126-2.056c.027,0,.027-.027,0-.027a28.889,28.889,0,0,0-9.879.614,30.466,30.466,0,0,0-12.228,6.3c-.828.694-1.522,1.362-2.189,2.029l.614,1.388-1.655-.267c-.534.614-1.015,1.228-1.5,1.869A48.591,48.591,0,0,1,.011,20.349a.051.051,0,0,0,.027.08A19.552,19.552,0,0,0,3.962,20a20.237,20.237,0,0,0,4.032-1.388,25.58,25.58,0,0,0,4.966-3.1c.187-.16.427-.32.667-.534M6.071,16.531l-1.041.881s-.133.107-.32.24c-.027.027-.053-.027-.053-.053A28.608,28.608,0,0,1,7.62,14.341a47.228,47.228,0,0,1,4.112-3.551A37.453,37.453,0,0,1,21.37,5.317a23.534,23.534,0,0,1,4.486-1.148c.027,0,.053.053,0,.053a33.939,33.939,0,0,0-9.238,4.192,87.213,87.213,0,0,0-8.25,6.168c-.774.641-1.549,1.282-2.3,1.949" transform="translate(0 -2.38)" fill="#fff"/>
    <rect id="Rectangle_41" data-name="Rectangle 41" width="116.224" height="0.694" transform="translate(87.265 44.428)" fill="#fff"/>
    <path id="Path_44" data-name="Path 44" d="M296.924,349v4.512h5.554V349h2.083v10.707h-2.083v-4.512h-5.554v4.512h-2.083V349Z" transform="translate(-216.12 -255.818)" fill="#fff"/>
    <path id="Path_45" data-name="Path 45" d="M355.142,348.5a6.414,6.414,0,0,1,2.99.694,5.185,5.185,0,0,1,2.109,1.976,5.383,5.383,0,0,1,.027,5.607,5.435,5.435,0,0,1-2.109,2,6.73,6.73,0,0,1-6.061,0,5.38,5.38,0,0,1-2.109-1.976,5.219,5.219,0,0,1-.748-2.777,5.422,5.422,0,0,1,.748-2.777,5.363,5.363,0,0,1,2.083-2,6.154,6.154,0,0,1,3.07-.748m-3.765,5.5a3.805,3.805,0,0,0,.481,1.922,3.312,3.312,0,0,0,1.335,1.308,3.979,3.979,0,0,0,1.949.481,3.768,3.768,0,0,0,2.723-1.041,3.521,3.521,0,0,0,1.068-2.67,3.805,3.805,0,0,0-.481-1.922,3.448,3.448,0,0,0-1.362-1.335,3.979,3.979,0,0,0-1.949-.481,3.907,3.907,0,0,0-1.949.481,3.316,3.316,0,0,0-1.335,1.308,3.979,3.979,0,0,0-.481,1.949" transform="translate(-255.995 -255.452)" fill="#fff"/>
    <path id="Path_46" data-name="Path 46" d="M415.975,348.5a8,8,0,0,1,1.789.214,9.781,9.781,0,0,1,1.9.694v1.949a11.527,11.527,0,0,0-1.816-.828,6.384,6.384,0,0,0-1.762-.24,4.326,4.326,0,0,0-2.056.481,3.482,3.482,0,0,0-1.442,1.335,3.6,3.6,0,0,0-.507,1.9,3.568,3.568,0,0,0,.507,1.922A3.352,3.352,0,0,0,414,357.231a4.423,4.423,0,0,0,2.083.454,5.822,5.822,0,0,0,1.682-.24,13.118,13.118,0,0,0,2.029-.908v1.949a9.041,9.041,0,0,1-1.922.774,7.692,7.692,0,0,1-2.029.24,6.514,6.514,0,0,1-3.017-.668,5.271,5.271,0,0,1-2.884-4.726,5.645,5.645,0,0,1,.774-2.91,5.324,5.324,0,0,1,2.163-1.976,6.543,6.543,0,0,1,3.1-.721" transform="translate(-300.488 -255.452)" fill="#fff"/>
    <path id="Path_47" data-name="Path 47" d="M467,349v4.512h5.58V349h2.083v10.707h-2.083v-4.512h-5.554v4.512h-2.083V349Z" transform="translate(-340.804 -255.818)" fill="#fff"/>
    <path id="Path_48" data-name="Path 48" d="M523.282,349l4.726,10.707h-2.189L524.7,357.09h-4.753l-1.041,2.617h-2.163L521.146,349Zm-2.723,6.541h3.471l-1.816-4.245Z" transform="translate(-378.773 -255.818)" fill="#fff"/>
    <path id="Path_49" data-name="Path 49" d="M576.407,349v1.629h-3.791v9.1h-2.083v-9.1h-3.791V349Z" transform="translate(-415.423 -255.818)" fill="#fff"/>
    <path id="Path_50" data-name="Path 50" d="M621.642,348.5a6.414,6.414,0,0,1,2.99.694,5.185,5.185,0,0,1,2.109,1.976,5.384,5.384,0,0,1,.027,5.607,5.434,5.434,0,0,1-2.109,2,6.73,6.73,0,0,1-6.061,0,5.379,5.379,0,0,1-2.109-1.976,5.22,5.22,0,0,1-.748-2.777,5.422,5.422,0,0,1,.748-2.777,5.363,5.363,0,0,1,2.083-2,6.084,6.084,0,0,1,3.07-.748M617.85,354a3.806,3.806,0,0,0,.481,1.922,3.312,3.312,0,0,0,1.335,1.308,3.979,3.979,0,0,0,1.949.481,3.768,3.768,0,0,0,2.723-1.041,3.521,3.521,0,0,0,1.068-2.67,3.8,3.8,0,0,0-.481-1.922,3.448,3.448,0,0,0-1.362-1.335,3.979,3.979,0,0,0-1.949-.481,3.907,3.907,0,0,0-1.949.481,3.316,3.316,0,0,0-1.335,1.308A3.979,3.979,0,0,0,617.85,354" transform="translate(-451.34 -255.452)" fill="#fff"/>
    <path id="Path_51" data-name="Path 51" d="M674.851,349l2.67,6.622,2.8-6.622h1.735l2.83,6.622L687.56,349h2.109l-4.405,10.84h-.694l-3.364-7.957-3.391,7.957h-.667L672.741,349Z" transform="translate(-493.122 -255.818)" fill="#fff"/>
    <path id="Path_52" data-name="Path 52" d="M753.357,349l6.355,7.476V349h2.029v10.707h-1.789l-6.408-7.609v7.609h-2V349Z" transform="translate(-550.882 -255.818)" fill="#fff"/>
    <path id="Path_53" data-name="Path 53" d="M290.741,217.8v16.314H301.8v-2.456h-7.9V217.8Z" transform="translate(-213.114 -159.648)" fill="#fff"/>
    <path id="Path_54" data-name="Path 54" d="M358.7,221.3l2.75,6.461h-5.26Zm-1.629-3.5-6.728,16.313h3.311l1.575-3.978h7.262l1.682,3.978h3.337L360.3,217.8Z" transform="translate(-256.801 -159.648)" fill="#fff"/>
    <path id="Path_55" data-name="Path 55" d="M450.683,217.8v11.4l-9.692-11.4h-2.75v16.314h3.07V222.553l9.745,11.561h2.723V217.8Z" transform="translate(-321.232 -159.648)" fill="#fff"/>
    <path id="Path_56" data-name="Path 56" d="M532.756,231.657a5.7,5.7,0,0,0,4.192-1.575,6.185,6.185,0,0,0-.027-8.277,5.955,5.955,0,0,0-4.3-1.522h-3.257v11.374Zm.32-13.857a9.641,9.641,0,0,1,4.539,1.041,7.348,7.348,0,0,1,3.07,2.91,8.348,8.348,0,0,1,1.095,4.219,8.236,8.236,0,0,1-1.095,4.245,7.524,7.524,0,0,1-3.124,2.857,10.458,10.458,0,0,1-4.672,1.015h-6.648V217.8Z" transform="translate(-385.736 -159.648)" fill="#fff"/>
    <rect id="Rectangle_42" data-name="Rectangle 42" width="3.151" height="16.314" transform="translate(163.44 58.152)" fill="#fff"/>
    <path id="Path_57" data-name="Path 57" d="M666.51,217.8v11.4l-9.692-11.4h-2.777v16.314h3.1V222.553l9.745,11.561h2.7V217.8Z" transform="translate(-479.415 -159.648)" fill="#fff"/>
    <path id="Path_58" data-name="Path 58" d="M748.852,217a14.615,14.615,0,0,1,5.981,1.335v2.884a12.686,12.686,0,0,0-5.847-1.5,6.8,6.8,0,0,0-3.177.721,5.028,5.028,0,0,0-2.163,2.056,5.94,5.94,0,0,0-.774,2.99,5.272,5.272,0,0,0,1.655,4.032,6.246,6.246,0,0,0,4.379,1.522,8.265,8.265,0,0,0,1.442-.133,9.465,9.465,0,0,0,1.629-.481v-2.7h-2.7v-2.51h5.847v6.728a9.563,9.563,0,0,1-2.884,1.308,12.716,12.716,0,0,1-3.5.481,10.031,10.031,0,0,1-4.672-1.068,8.012,8.012,0,0,1-4.432-7.262,8.015,8.015,0,0,1,4.486-7.342A10.6,10.6,0,0,1,748.852,217" transform="translate(-542.159 -159.062)" fill="#fff"/>
  </g>
</svg>
