<svg id="Layer_2" xmlns="http://www.w3.org/2000/svg" xmlns:xlink="http://www.w3.org/1999/xlink" viewBox="0 0 136.67 98.86"><defs><style>.cls-1{clip-path:url(#clippath);}.cls-2{fill:none;}.cls-2,.cls-3{stroke-width:0px;}.cls-4{clip-path:url(#clippath-1);}.cls-3{fill:#fff;}</style><clipPath id="clippath"><rect class="cls-2" x="16.67" width="120" height="98.86"/></clipPath><clipPath id="clippath-1"><rect class="cls-2" width="134.51" height="98.86"/></clipPath></defs><g id="Layer_1-2"><g class="cls-1"><g class="cls-4"><path class="cls-3" d="M109.81,33.91l-.29-6.49c-2.16-1.43-4.43-2.5-6.8-3.21-2.37-.7-4.84-1.06-7.42-1.06-6.56,0-11.81,1.99-15.76,5.98-3.95,3.99-5.92,9.32-5.92,16,0,4.69,1,8.87,3.01,12.54,2,3.67,4.85,6.57,8.55,8.71,3.69,2.14,7.59,3.21,11.7,3.21,3.26,0,6.47-.38,9.66-1.13,2.38-.56,4.77-1.72,7.18-3.5l.77.73c-.51,1.12-.98,2.25-1.42,3.39-2.84,1.41-5.7,2.47-8.58,3.19-2.88.72-5.78,1.07-8.69,1.07-5.98,0-11.23-1.15-15.76-3.46-4.53-2.31-8.01-5.5-10.44-9.57-2.43-4.07-3.64-8.67-3.64-13.79s1.23-9.71,3.68-13.76c2.45-4.05,5.92-7.18,10.4-9.4,4.48-2.22,9.99-3.33,16.53-3.33,3.43,0,7.43.56,12.03,1.68,2.28.53,4.14.93,5.58,1.2-1.09,2.6-1.73,6.27-1.9,11.01h-2.44Z"/><path class="cls-3" d="M78.16,21.7c-.68.11-1.59.27-2.64.53-1.33.33-5.88,1.55-11.75,5.63-1.17.82-6,4.25-10.92,10.4-5.13,6.41-7.57,12.29-8.95,15.61-.59,1.41-1.11,2.89-1.55,4.2l2.65,3.28-3.64-.06c-.13.44-.2.7-.2.7-.49,1.86-.82,3.47-.99,4.73-.45,3.2-.59,5.54-.59,5.54-.05.91-.08,1.74-.19,3.11-.12,1.47-.27,2.67-.38,3.46,0,.02.02.04.04.03,3.33-1.55,7.75-4.39,11.42-8.98,1.87-2.33,4.05-6.53,5-8.52.1-.21.2-.44.31-.69l-5.89-1.76,7.26-1.7c.82-2.22,1.68-4.72,2.3-6.69l-5.05.52,6-3.77c.6-2.26,1.3-4.15,1.3-4.15,1.05-2.92,1.93-5.4,3.5-8.27,1.71-3.12,4.72-8.47,10.73-11.96.88-.51,1.66-.89,2.24-1.15.03-.02.02-.07-.02-.06M68.11,26.9c-4.47,4.02-8.16,8.69-11.3,13.82-3.57,5.81-6.52,12.09-8.83,18.5-.62,1.72-1.11,3.47-1.75,5.18-.29.78-.6,1.55-.94,2.31-.09.21-.33.78-.61,1.23-.02.04-.08.02-.07-.03.48-2.8,1.2-5.61,2.01-8.33,1.04-3.47,2.3-6.89,3.8-10.19,2.62-5.78,5.93-11.32,10.18-16.06,2.21-2.47,4.7-4.67,7.47-6.49.04-.03.08.03.05.06"/><path class="cls-3" d="M42.66,40.98l-2.33-3.94,4.72,1.96c.54-.46.91-.78.91-.78.8-.7,1.56-1.4,2.92-2.62.04-.04.12-.11.22-.2l-2.26-2.93,4.08,1.31c.85-.76,1.67-1.48,1.78-1.58,4.4-3.81,9.04-6.14,10.92-7.07,2.16-1.07,5.03-2.32,8.55-3.4.03-.01.03-.06,0-.06-4.45-.48-10.13-.48-16.43,1.04-3.16.76-12.14,3.52-20.36,10.52-1.36,1.16-2.55,2.27-3.62,3.38l1.04,2.31-2.76-.44c-.89,1.01-1.71,2.04-2.51,3.11,0,0-4.24,5.36-7.49,8.3-.05.04-.02.12.05.12,1.72,0,3.96-.16,6.52-.72.61-.13,3.34-.75,6.72-2.31,3.71-1.71,6.01-3.51,8.26-5.16.31-.22.68-.52,1.08-.84M30.08,43.53c-.57.49-1.15.98-1.73,1.47,0,0-.22.19-.52.41-.05.03-.1-.02-.07-.07,1.46-1.95,3.2-3.74,4.95-5.42,2.18-2.09,4.46-4.08,6.86-5.92,4.87-3.75,10.27-6.96,16.05-9.09,2.42-.89,4.91-1.53,7.46-1.89.06,0,.08.08.02.1-5.48,1.46-10.56,3.97-15.35,6.99-4.84,3.04-9.43,6.52-13.81,10.18-1.29,1.08-2.57,2.17-3.86,3.26"/></g></g></g></svg>
