<?xml version="1.0" encoding="UTF-8"?><svg id="Layer_2" xmlns="http://www.w3.org/2000/svg" viewBox="0 0 606.47 51.34"><defs><style>.cls-1{fill:#fff;stroke-width:0px;}</style></defs><g id="Layer_1-2"><path class="cls-1" d="m67.01,11.51l-.22-4.84c-1.61-1.07-3.3-1.87-5.07-2.39-1.77-.53-3.61-.79-5.53-.79-4.89,0-8.81,1.49-11.76,4.46-2.95,2.97-4.42,6.95-4.42,11.94,0,3.5.75,6.62,2.24,9.35,1.5,2.74,3.62,4.9,6.38,6.5,2.75,1.6,5.67,2.39,8.73,2.39,2.43,0,4.83-.28,7.2-.84,1.78-.42,3.56-1.29,5.36-2.61l.57.54c-.38.83-.73,1.68-1.06,2.53-2.12,1.05-4.26,1.84-6.4,2.38-2.15.53-4.31.8-6.49.8-4.46,0-8.38-.86-11.76-2.58-3.38-1.72-5.98-4.1-7.79-7.14-1.81-3.04-2.72-6.47-2.72-10.29s.91-7.25,2.75-10.26c1.83-3.02,4.42-5.36,7.76-7.01,3.34-1.66,7.45-2.49,12.33-2.49,2.56,0,5.55.42,8.97,1.25,1.7.4,3.09.7,4.16.9-.82,1.94-1.29,4.68-1.41,8.21h-1.82Z"/><path class="cls-1" d="m87.61,24.8v6.15c0,1.06.04,2.3.11,3.72.09,2,.16,3.1.22,3.32.06.21.27.43.64.65.37.22.96.33,1.78.33h1.5v1.38c-1.91-.1-3.75-.15-5.52-.15s-4.17.05-7.37.15v-1.38h1.36c1.54,0,2.45-.26,2.73-.78.28-.52.42-2.91.42-7.16v-13.26c0-3.84-.14-6.02-.43-6.55-.29-.52-1.1-.78-2.45-.78h-1.63v-1.39c2.42.1,4.67.15,6.75.15s4.14-.05,6.14-.15v1.39h-.95c-1.36,0-2.21.11-2.53.33-.32.22-.52.58-.59,1.08-.12.81-.18,2.77-.18,5.88v5.02c2.61.1,5.93.15,9.96.15,3.42,0,6.2-.05,8.34-.15v-4.3c0-2.51-.09-4.62-.26-6.33-.06-.6-.26-1.03-.59-1.3-.34-.26-1.03-.4-2.07-.4h-1.58v-1.39c2.24.1,4.37.15,6.38.15,2.17,0,4.43-.05,6.78-.15v1.39h-1.67c-1.13,0-1.85.12-2.17.37-.32.25-.51.71-.57,1.38-.06.67-.1,2.77-.1,6.3v12.17c0,4.5.13,7.01.39,7.53.26.52,1.06.78,2.41.78h1.72v1.38c-2.02-.1-4.11-.15-6.27-.15-2.46,0-4.76.05-6.89.15v-1.38h1.52c1.11,0,1.83-.13,2.16-.39.32-.26.52-.74.59-1.44.16-1.51.24-3.72.24-6.61v-5.73c-2.07-.1-4.71-.15-7.92-.15-4.58,0-8.04.05-10.38.15"/><path class="cls-1" d="m129.4,22.88c0,3.31.57,6.2,1.71,8.66,1.14,2.46,2.66,4.3,4.57,5.52,1.91,1.23,4.09,1.84,6.54,1.84,2.28,0,4.26-.52,5.97-1.56,1.7-1.04,3.04-2.6,4.02-4.66.98-2.07,1.46-4.58,1.46-7.55,0-3.11-.54-5.77-1.62-7.97-1.08-2.21-2.56-3.87-4.44-4.98-1.88-1.11-4.1-1.67-6.67-1.67-2.35,0-4.38.49-6.08,1.47-1.7.98-3.04,2.42-4.01,4.32-.97,1.9-1.45,4.1-1.45,6.59m-4.47,1.8c0-4.82,1.55-8.71,4.67-11.66,3.11-2.95,7.26-4.42,12.44-4.42s9.06,1.37,11.94,4.1c2.88,2.74,4.33,6.37,4.33,10.9,0,4.88-1.67,8.97-5.02,12.25-3.35,3.29-7.57,4.93-12.66,4.93-3.18,0-5.93-.65-8.23-1.94-2.3-1.29-4.12-3.18-5.46-5.65-1.34-2.48-2-5.32-2-8.51"/><path class="cls-1" d="m196.79,16.99l-.18-3.92c-1.31-.87-2.67-1.51-4.1-1.94-1.43-.43-2.92-.64-4.48-.64-3.96,0-7.13,1.2-9.51,3.61-2.38,2.4-3.57,5.62-3.57,9.66,0,2.83.6,5.35,1.81,7.57,1.21,2.21,2.93,3.97,5.16,5.26,2.23,1.29,4.58,1.93,7.06,1.93,1.97,0,3.91-.23,5.83-.68,1.44-.34,2.88-1.04,4.33-2.11l.46.44c-.31.67-.59,1.36-.86,2.05-1.72.85-3.44,1.49-5.18,1.92-1.74.43-3.49.65-5.25.65-3.61,0-6.78-.7-9.51-2.09-2.74-1.39-4.84-3.32-6.3-5.78-1.47-2.46-2.2-5.23-2.2-8.33s.74-5.86,2.22-8.3c1.48-2.44,3.57-4.33,6.28-5.68,2.71-1.34,6.03-2.01,9.98-2.01,2.07,0,4.49.34,7.26,1.01,1.38.32,2.5.57,3.37.73-.66,1.57-1.04,3.78-1.14,6.64h-1.47Z"/><path class="cls-1" d="m223.85,11.05c-.16,2.2-.24,4.52-.24,6.95v12.54c0,4.66.12,7.23.35,7.71.23.48,1.07.71,2.51.71h1.65v1.39c-2.6-.1-4.8-.15-6.6-.15s-4,.05-6.56.15v-1.39h1.85c.97,0,1.6-.13,1.89-.38.29-.26.48-.76.55-1.51.15-1.72.22-3.93.22-6.64v-12.56c0-2.48-.05-4.75-.15-6.82h-2.24c-3.61,0-5.6.09-5.97.25-.37.17-.61.82-.72,1.97l-.31,2.95h-1.39l.04-2.62c0-1.06-.09-2.57-.26-4.55,7.92.1,12.58.15,13.97.15l12.17-.15c-.28,2.48-.44,4.87-.49,7.17h-1.39l-.22-2.88c-.09-1-.21-1.59-.37-1.77-.16-.18-.52-.3-1.08-.34-1.61-.12-3.45-.18-5.5-.18h-1.72Z"/><path class="cls-1" d="m250.65,27.99h11.08l-5.54-13.22-5.54,13.22Zm11.91,1.8h-12.73l-1.49,3.54c-.98,2.35-1.47,3.78-1.47,4.31,0,.34.09.58.28.73.18.15.65.26,1.4.35l2.11.24v1.38c-1.41-.1-2.99-.15-4.75-.15-2.11,0-3.97.05-5.57.15v-1.38l.66-.02c1.03-.03,1.69-.14,1.99-.32.3-.18.62-.63.96-1.35,1.04-2.11,2.1-4.39,3.19-6.84l6.05-13.7c1.61-3.64,2.71-6.28,3.3-7.92h1.5l11.13,25.89c.75,1.76,1.24,2.82,1.49,3.18.25.36.54.62.86.77.32.15,1.05.26,2.18.32v1.38c-1.91-.1-3.73-.15-5.46-.15-1.61,0-3.76.05-6.45.15v-1.38l2.18-.13c.78-.06,1.24-.14,1.39-.24.22-.16.33-.37.33-.62,0-.26-.22-.95-.66-2.07l-2.41-6.12Z"/><path class="cls-1" d="m292.81,33.66l5.11-12.58c.87-2.15,2.44-6.26,4.72-12.32h1.34c.87,2.71,2.04,6.15,3.51,10.3l5.32,14.92,4.03-13.93c.38-1.33,1.04-3.9,1.98-7.7.09-.34.13-.62.13-.84,0-.26-.11-.46-.33-.59s-.76-.24-1.63-.33l-2-.15v-1.39c2.06.1,3.68.15,4.85.15,1.26,0,2.82-.05,4.68-.15v1.39h-1.14c-.5,0-.87.12-1.12.35-.47.48-1.58,3.56-3.34,9.23-2.33,7.57-4.26,14.46-5.8,20.68h-2.25c-.27-.98-.49-1.71-.66-2.2-.65-1.89-2.15-6.06-4.51-12.5l-3.62-9.9-4.11,9.96c-2.46,5.96-4.29,10.83-5.48,14.63h-2.21l-1.17-5.41c-.32-1.6-.7-3.3-1.12-5.1l-3.84-16.46c-.37-1.61-.7-2.57-.99-2.86-.29-.29-.9-.44-1.83-.44h-.92v-1.39c2.1.1,3.91.15,5.43.15s3.48-.05,6.01-.15v1.39h-1.39c-1,0-1.65.09-1.95.26-.3.18-.45.46-.45.86,0,.23.04.5.11.81l1.52,7.3,3.13,13.99Z"/><path class="cls-1" d="m43.39,2.39c-.51.08-1.19.2-1.97.4-.99.24-4.39,1.15-8.77,4.2-.87.61-4.48,3.17-8.15,7.76-3.83,4.78-5.65,9.17-6.68,11.65-.44,1.05-.83,2.16-1.15,3.14l1.98,2.44-2.72-.04c-.09.33-.15.52-.15.52-.37,1.39-.61,2.59-.74,3.53-.34,2.39-.44,4.13-.44,4.13-.04.68-.06,1.3-.14,2.32-.09,1.09-.2,1.99-.28,2.58,0,.02.01.03.03.02,2.49-1.16,5.78-3.28,8.52-6.7,1.39-1.74,3.02-4.87,3.73-6.35.07-.15.15-.33.23-.51l-4.4-1.31,5.42-1.27c.61-1.65,1.25-3.52,1.72-4.99l-3.77.39,4.48-2.81c.45-1.69.97-3.1.97-3.1.78-2.18,1.44-4.03,2.61-6.17,1.27-2.33,3.52-6.32,8-8.93.66-.38,1.24-.66,1.67-.86.03-.01.01-.05-.01-.04Zm-7.5,3.89c-3.33,3-6.09,6.48-8.43,10.31-2.66,4.34-4.86,9.02-6.59,13.8-.46,1.28-.83,2.59-1.3,3.87-.22.58-.45,1.16-.7,1.72-.07.16-.25.58-.46.92-.02.03-.06.01-.05-.02.36-2.09.9-4.18,1.5-6.21.77-2.59,1.72-5.14,2.83-7.6,1.96-4.31,4.43-8.45,7.59-11.98,1.65-1.84,3.51-3.49,5.57-4.85.03-.02.06.02.04.05Z"/><path class="cls-1" d="m16.9,16.78l-1.74-2.94,3.52,1.46c.4-.34.68-.58.68-.58.6-.52,1.17-1.05,2.18-1.95.03-.03.09-.08.17-.15l-1.69-2.19,3.04.98c.64-.57,1.25-1.11,1.33-1.17,3.29-2.84,6.75-4.58,8.15-5.27,1.61-.8,3.76-1.73,6.38-2.54.02,0,.02-.04,0-.05-3.32-.36-7.55-.36-12.26.77-2.36.57-9.06,2.62-15.19,7.85-1.01.86-1.9,1.7-2.7,2.52l.78,1.72-2.06-.33c-.66.76-1.27,1.52-1.87,2.32,0,0-3.16,4-5.59,6.19-.04.03-.01.08.03.08,1.28,0,2.96-.12,4.87-.54.45-.1,2.49-.56,5.01-1.72,2.77-1.27,4.48-2.61,6.16-3.85.23-.17.51-.39.81-.63Zm-9.38,1.9c-.43.36-.86.73-1.29,1.1,0,0-.17.14-.39.3-.03.02-.08-.02-.05-.05,1.09-1.46,2.38-2.79,3.69-4.05,1.62-1.56,3.33-3.04,5.12-4.42,3.63-2.79,7.66-5.19,11.97-6.78,1.8-.67,3.66-1.14,5.57-1.41.04,0,.06.06.01.07-4.08,1.09-7.88,2.97-11.45,5.22-3.61,2.27-7.04,4.86-10.3,7.6-.96.81-1.92,1.62-2.88,2.43Z"/><rect class="cls-1" x="342.92" width=".86" height="51.34"/><path class="cls-1" d="m370.49,17.28c.75,0,1.49.08,2.2.26s1.49.46,2.33.87v2.4c-.81-.47-1.57-.8-2.26-1.01-.69-.21-1.41-.31-2.16-.31-.94,0-1.79.19-2.55.58-.76.39-1.34.94-1.76,1.64-.42.71-.63,1.49-.63,2.36s.21,1.67.62,2.37c.42.7,1,1.24,1.76,1.62s1.61.57,2.55.57c.73,0,1.42-.1,2.08-.31s1.49-.58,2.49-1.13v2.4c-.86.45-1.65.77-2.36.96s-1.56.28-2.52.28c-1.39,0-2.64-.28-3.74-.83s-1.96-1.35-2.59-2.4-.94-2.19-.94-3.43c0-1.33.32-2.53.97-3.59.65-1.06,1.54-1.88,2.67-2.45,1.13-.57,2.41-.86,3.83-.86Z"/><path class="cls-1" d="m387.44,17.45l5.84,13.22h-2.7l-1.37-3.22h-5.88l-1.28,3.22h-2.68l5.45-13.22h2.61Zm-3.33,8.06h4.27l-2.23-5.23-2.03,5.23Z"/><path class="cls-1" d="m402.18,17.28c1.29,0,2.53.32,3.72.96v2.27c-1.37-.83-2.58-1.24-3.64-1.24-.64,0-1.15.12-1.51.37-.36.25-.54.58-.54,1,0,.5.34.96,1.01,1.38.19.13.92.48,2.19,1.06,1.09.51,1.87,1.08,2.35,1.7.48.62.72,1.38.72,2.25,0,1.14-.41,2.05-1.23,2.75-.82.7-1.87,1.05-3.17,1.05-.84,0-1.57-.09-2.18-.28-.61-.19-1.29-.51-2.05-.96v-2.52c1.41,1.17,2.74,1.76,3.99,1.76.62,0,1.13-.14,1.51-.41.38-.27.58-.63.58-1.08,0-.61-.33-1.11-1-1.49-.56-.3-1.27-.67-2.15-1.09-1.04-.47-1.82-1.03-2.33-1.66-.51-.63-.77-1.36-.77-2.19,0-1.11.41-1.99,1.24-2.65.83-.66,1.92-.99,3.27-.99Z"/><path class="cls-1" d="m415.23,17.45v13.22h-2.55v-13.22h2.55Z"/><path class="cls-1" d="m423.97,17.45l7.85,9.22v-9.22h2.5v13.22h-2.19l-7.9-9.38v9.38h-2.5v-13.22h2.24Z"/><path class="cls-1" d="m447.13,17.28c1.37,0,2.6.28,3.69.85,1.09.56,1.97,1.38,2.62,2.44s.97,2.23.97,3.5-.32,2.38-.95,3.44c-.63,1.06-1.5,1.88-2.61,2.46-1.11.58-2.35.88-3.74.88s-2.61-.3-3.73-.89-1.99-1.41-2.62-2.45c-.62-1.04-.94-2.18-.94-3.44s.31-2.35.94-3.42c.62-1.07,1.49-1.89,2.58-2.48,1.1-.59,2.36-.88,3.78-.88Zm-4.66,6.78c0,.88.2,1.67.6,2.37s.95,1.24,1.66,1.63c.71.38,1.51.58,2.41.58,1.36,0,2.47-.43,3.35-1.28.87-.85,1.31-1.95,1.31-3.29,0-.88-.2-1.67-.59-2.37-.39-.7-.95-1.25-1.67-1.63-.72-.38-1.52-.58-2.42-.58s-1.7.19-2.42.58c-.72.39-1.27.93-1.65,1.63-.38.7-.58,1.49-.58,2.37Z"/><path class="cls-1" d="m463.73,17.28c1.29,0,2.53.32,3.72.96v2.27c-1.37-.83-2.58-1.24-3.64-1.24-.64,0-1.15.12-1.51.37-.36.25-.54.58-.54,1,0,.5.34.96,1.01,1.38.19.13.92.48,2.19,1.06,1.09.51,1.87,1.08,2.35,1.7.48.62.72,1.38.72,2.25,0,1.14-.41,2.05-1.23,2.75-.82.7-1.87,1.05-3.17,1.05-.84,0-1.57-.09-2.18-.28-.61-.19-1.29-.51-2.05-.96v-2.52c1.41,1.17,2.74,1.76,3.99,1.76.62,0,1.13-.14,1.51-.41.38-.27.58-.63.58-1.08,0-.61-.33-1.11-1-1.49-.56-.3-1.27-.67-2.15-1.09-1.04-.47-1.82-1.03-2.33-1.66-.51-.63-.77-1.36-.77-2.19,0-1.11.41-1.99,1.24-2.65.83-.66,1.92-.99,3.27-.99Z"/><path class="cls-1" d="m483.82,17.45c1.01,0,1.85.29,2.52.86.67.57,1.01,1.3,1.01,2.19,0,.64-.2,1.24-.6,1.8-.4.56-1.01,1.1-1.84,1.65l1.82,2.1c.54-.54,1.03-1.24,1.48-2.1h2.4c-.63,1.51-1.44,2.76-2.42,3.73l2.66,3h-3.3l-1.22-1.39c-.67.55-1.31.95-1.93,1.2-.62.24-1.36.36-2.23.36-1.07,0-1.96-.32-2.7-.97-.73-.64-1.1-1.43-1.1-2.37,0-.78.26-1.47.79-2.09.53-.61,1.28-1.18,2.25-1.71-.46-.58-.8-1.11-1.01-1.58s-.32-.95-.32-1.43c0-.96.35-1.75,1.05-2.35s1.6-.9,2.7-.9Zm-2.9,9.89c0,.42.16.78.49,1.07.32.29.71.43,1.16.43.76,0,1.56-.37,2.4-1.1l-2.27-2.54c-.56.35-.99.7-1.31,1.04-.32.34-.47.7-.47,1.1Zm1.55-6.82c0,.29.12.63.35,1.01.23.38.5.71.81.99.46-.28.83-.57,1.1-.86.27-.29.41-.63.41-1.02,0-.36-.13-.66-.38-.9-.25-.24-.58-.36-.98-.36-.35,0-.66.11-.92.32s-.39.49-.39.82Z"/><path class="cls-1" d="m506.67,17.45c1.24,0,2.25.34,3.04,1.03.78.69,1.17,1.58,1.17,2.69,0,.75-.19,1.41-.58,1.96-.39.56-.96,1-1.73,1.32.42.23.8.54,1.13.93.33.39.73,1.05,1.22,1.98.81,1.6,1.41,2.71,1.8,3.31h-2.85c-.2-.29-.46-.75-.79-1.39-.73-1.41-1.27-2.35-1.61-2.84s-.67-.84-.98-1.04c-.32-.21-.68-.31-1.09-.31h-.93v5.58h-2.55v-13.22h4.76Zm-.58,5.64c.67,0,1.19-.17,1.58-.5.38-.33.57-.79.57-1.37s-.19-1.06-.57-1.36c-.38-.3-.92-.45-1.62-.45h-1.59v3.68h1.63Z"/><path class="cls-1" d="m526.46,17.45v2h-5.99v3.47h5.73v2h-5.73v3.76h6.12v2h-8.67v-13.22h8.54Z"/><path class="cls-1" d="m536.73,17.28c1.29,0,2.53.32,3.72.96v2.27c-1.37-.83-2.58-1.24-3.64-1.24-.64,0-1.15.12-1.51.37-.36.25-.54.58-.54,1,0,.5.34.96,1.01,1.38.19.13.92.48,2.19,1.06,1.09.51,1.87,1.08,2.35,1.7.48.62.72,1.38.72,2.25,0,1.14-.41,2.05-1.23,2.75-.82.7-1.87,1.05-3.17,1.05-.84,0-1.57-.09-2.18-.28-.61-.19-1.29-.51-2.05-.96v-2.52c1.41,1.17,2.74,1.76,3.99,1.76.62,0,1.13-.14,1.51-.41.38-.27.58-.63.58-1.08,0-.61-.33-1.11-1-1.49-.56-.3-1.27-.67-2.15-1.09-1.04-.47-1.82-1.03-2.33-1.66-.51-.63-.77-1.36-.77-2.19,0-1.11.41-1.99,1.24-2.65.83-.66,1.92-.99,3.27-.99Z"/><path class="cls-1" d="m553.49,17.28c1.37,0,2.6.28,3.69.85,1.09.56,1.97,1.38,2.62,2.44s.97,2.23.97,3.5-.32,2.38-.95,3.44c-.63,1.06-1.5,1.88-2.61,2.46-1.11.58-2.35.88-3.74.88s-2.61-.3-3.73-.89-1.99-1.41-2.62-2.45c-.62-1.04-.94-2.18-.94-3.44s.31-2.35.94-3.42c.62-1.07,1.49-1.89,2.58-2.48,1.1-.59,2.36-.88,3.78-.88Zm-4.66,6.78c0,.88.2,1.67.6,2.37s.95,1.24,1.66,1.63c.71.38,1.51.58,2.41.58,1.36,0,2.47-.43,3.35-1.28.87-.85,1.31-1.95,1.31-3.29,0-.88-.2-1.67-.59-2.37-.39-.7-.95-1.25-1.67-1.63-.72-.38-1.52-.58-2.42-.58s-1.7.19-2.42.58c-.72.39-1.27.93-1.65,1.63-.38.7-.58,1.49-.58,2.37Z"/><path class="cls-1" d="m571.45,17.45c1.24,0,2.25.34,3.04,1.03.78.69,1.17,1.58,1.17,2.69,0,.75-.19,1.41-.58,1.96-.39.56-.96,1-1.73,1.32.42.23.8.54,1.13.93.33.39.73,1.05,1.22,1.98.81,1.6,1.41,2.71,1.8,3.31h-2.85c-.2-.29-.46-.75-.79-1.39-.73-1.41-1.27-2.35-1.61-2.84s-.67-.84-.98-1.04c-.32-.21-.68-.31-1.09-.31h-.93v5.58h-2.55v-13.22h4.76Zm-.58,5.64c.67,0,1.19-.17,1.58-.5.38-.33.57-.79.57-1.37s-.19-1.06-.57-1.36c-.38-.3-.92-.45-1.62-.45h-1.59v3.68h1.63Z"/><path class="cls-1" d="m592.89,17.45v2h-4.69v11.22h-2.55v-11.22h-4.69v-2h11.94Z"/><path class="cls-1" d="m602.19,17.28c1.29,0,2.53.32,3.72.96v2.27c-1.37-.83-2.58-1.24-3.64-1.24-.64,0-1.15.12-1.51.37-.36.25-.54.58-.54,1,0,.5.34.96,1.01,1.38.19.13.92.48,2.19,1.06,1.09.51,1.87,1.08,2.35,1.7.48.62.72,1.38.72,2.25,0,1.14-.41,2.05-1.23,2.75-.82.7-1.87,1.05-3.17,1.05-.84,0-1.57-.09-2.18-.28-.61-.19-1.29-.51-2.05-.96v-2.52c1.41,1.17,2.74,1.76,3.99,1.76.62,0,1.13-.14,1.51-.41.38-.27.58-.63.58-1.08,0-.61-.33-1.11-1-1.49-.56-.3-1.27-.67-2.15-1.09-1.04-.47-1.82-1.03-2.33-1.66-.51-.63-.77-1.36-.77-2.19,0-1.11.41-1.99,1.24-2.65.83-.66,1.92-.99,3.27-.99Z"/><path class="cls-1" d="m223.85,11.05c-.16,2.2-.24,4.52-.24,6.95v12.54c0,4.66.12,7.23.35,7.71.23.48,1.07.71,2.51.71h1.65v1.39c-2.6-.1-4.8-.15-6.6-.15s-4,.05-6.56.15v-1.39h1.85c.97,0,1.6-.13,1.89-.38.29-.26.48-.76.55-1.51.15-1.72.22-3.93.22-6.64v-12.56c0-2.48-.05-4.75-.16-6.82h-2.24c-3.61,0-5.6.09-5.97.25-.37.17-.61.82-.72,1.97l-.31,2.95h-1.39l.04-2.62c0-1.06-.09-2.57-.26-4.55,7.92.1,12.58.15,13.97.15l12.17-.15c-.28,2.48-.44,4.87-.49,7.17h-1.39l-.22-2.88c-.09-1-.21-1.59-.37-1.77-.16-.18-.52-.3-1.08-.34-1.61-.12-3.45-.18-5.5-.18h-1.72Z"/></g></svg>