<?xml version="1.0" encoding="UTF-8"?>
<svg id="Layer_1" data-name="Layer 1" xmlns="http://www.w3.org/2000/svg" version="1.1" viewBox="0 0 1000 1000">
  <defs>
    <style>
      .cls-1 {
        fill: #000;
        stroke-width: 0px;
      }
    </style>
  </defs>
  <g>
    <g>
      <path class="cls-1" d="M353.38,475.18c-29.88,0-45.55-15.67-45.55-35.39s15.67-35.39,45.55-35.39,45.55,15.66,45.55,35.39-15.67,35.39-45.55,35.39M353.38,463.57c20.98,0,32.2-10.54,32.2-23.79s-11.22-23.79-32.2-23.79-32.2,10.54-32.2,23.79,11.22,23.79,32.2,23.79"/>
      <polygon class="cls-1" points="487.79 461.25 490.01 461.25 490.01 405.94 503.36 405.94 503.36 473.63 481.6 473.63 433.73 417.54 431.31 417.54 431.31 473.63 417.97 473.63 417.97 405.94 440.79 405.94 487.79 461.25"/>
      <polygon class="cls-1" points="564.56 473.63 551.21 473.63 551.21 451.58 513.79 405.94 530.23 405.94 557.98 439.88 585.74 405.94 601.98 405.94 564.56 451.58 564.56 473.63"/>
      <polygon class="cls-1" points="650.81 446.74 624.61 473.63 607.29 473.63 642.11 437.95 610.97 405.94 628.47 405.94 650.91 428.95 673.35 405.94 690.66 405.94 659.52 437.85 694.52 473.63 677.02 473.63 650.81 446.74"/>
    </g>
    <g>
      <path class="cls-1" d="M268.36,574.71c-3.01-1.77-6.36-2.74-9.33-2.74-5.67,0-10.22,4.32-10.22,10.14s4.32,10.18,10.37,10.18c2,0,3.05-.23,5.94-1.16v-5.48h-5.05v-3.31h8.83v11.1c-3.28,1.5-6.36,2.16-9.64,2.16-9.99,0-14.38-7.06-14.38-13.26,0-7.37,5.63-13.73,14.23-13.73,3.01,0,5.36.54,9.25,2.24v3.86Z"/>
      <path class="cls-1" d="M312.25,568.97v26.3h-3.78v-26.3h3.78Z"/>
      <path class="cls-1" d="M366.08,568.97v3.39h-10.26v7.29h10.26v3.39h-10.26v12.22h-3.78v-26.3h14.04Z"/>
      <path class="cls-1" d="M424.29,568.97v3.32h-9.18v22.98h-3.78v-22.98h-9.02v-3.32h21.98Z"/>
      <path class="cls-1" d="M521.34,568.97v3.36h-11.14v8.02h10.76v3.36h-10.76v8.17h11.49v3.39h-15.27v-26.3h14.92Z"/>
      <path class="cls-1" d="M561.59,568.97l7.98,18.47,7.79-18.47h3.74l-11.11,26.45h-.85l-11.34-26.45h3.78Z"/>
      <path class="cls-1" d="M632.81,568.97v3.36h-11.14v8.02h10.76v3.36h-10.76v8.17h11.49v3.39h-15.27v-26.3h14.92Z"/>
      <path class="cls-1" d="M674.78,568.97l17.62,20.4v-20.4h3.62v26.3h-3.28l-17.47-20.24v20.24h-3.62v-26.3h3.12Z"/>
      <path class="cls-1" d="M755.12,568.97v3.32h-9.18v22.98h-3.78v-22.98h-9.02v-3.32h21.98Z"/>
    </g>
  </g>
  <g>
    <path class="cls-1" d="M365.5,497.08v2.12h-9.44v7.54h9.13v2.12h-9.13v7.67h9.7v2.15h-12.07v-21.61h11.82Z"/>
    <path class="cls-1" d="M428.36,497.08v19.43h10.17v2.19h-12.55v-21.61h2.38Z"/>
    <path class="cls-1" d="M500.17,497.08v21.61h-2.38v-21.61h2.38Z"/>
    <path class="cls-1" d="M577.21,497.08v2.09h-7.73v19.52h-2.38v-19.52h-7.64v-2.09h17.75Z"/>
    <path class="cls-1" d="M648.39,497.08v2.12h-9.44v7.54h9.13v2.12h-9.13v7.67h9.7v2.15h-12.07v-21.61h11.82Z"/>
  </g>
</svg>