<?xml version="1.0" encoding="UTF-8"?><svg id="Layer_2" xmlns="http://www.w3.org/2000/svg" xmlns:xlink="http://www.w3.org/1999/xlink" viewBox="0 0 616.66 194.99"><defs><style>.cls-1{fill:url(#linear-gradient);}.cls-1,.cls-2,.cls-3,.cls-4,.cls-5{stroke-width:0px;}.cls-2{fill:url(#linear-gradient-4);}.cls-3{fill:url(#linear-gradient-2);}.cls-4{fill:url(#linear-gradient-3);}.cls-5{fill:#fff;}</style><linearGradient id="linear-gradient" x1="130.9" y1="5.94" x2="130.9" y2="90.08" gradientUnits="userSpaceOnUse"><stop offset="0" stop-color="#fff"/><stop offset="1" stop-color="#afafb0"/></linearGradient><linearGradient id="linear-gradient-2" x1="260.73" y1="5.94" x2="260.73" y2="90.08" xlink:href="#linear-gradient"/><linearGradient id="linear-gradient-3" x1="378.38" y1="5.94" x2="378.38" y2="90.08" xlink:href="#linear-gradient"/><linearGradient id="linear-gradient-4" x1="490.95" y1="5.94" x2="490.95" y2="90.08" xlink:href="#linear-gradient"/></defs><g id="Layer_1-2"><path class="cls-1" d="M130.91,85.66c-36.16,0-55.12-18.96-55.12-42.83S94.74,0,130.91,0s55.12,18.96,55.12,42.83-18.96,42.83-55.12,42.83M130.91,71.62c25.39,0,38.97-12.76,38.97-28.79s-13.58-28.79-38.97-28.79-38.97,12.76-38.97,28.79,13.57,28.79,38.97,28.79"/><polygon class="cls-3" points="293.55 68.81 296.24 68.81 296.24 1.87 312.4 1.87 312.4 83.79 286.06 83.79 228.14 15.91 225.21 15.91 225.21 83.79 209.06 83.79 209.06 1.87 236.68 1.87 293.55 68.81"/><polygon class="cls-4" points="386.46 83.79 370.3 83.79 370.3 57.11 325.02 1.87 344.91 1.87 378.5 42.95 412.08 1.87 431.74 1.87 386.46 57.11 386.46 83.79"/><polygon class="cls-2" points="490.83 51.25 459.12 83.79 438.17 83.79 480.3 40.61 442.62 1.87 463.8 1.87 490.95 29.72 518.1 1.87 539.05 1.87 501.36 40.49 543.72 83.79 522.54 83.79 490.83 51.25"/><path class="cls-5" d="M28.42,169.7c-3.64-2.15-7.7-3.31-11.29-3.31-6.86,0-12.37,5.23-12.37,12.27s5.23,12.32,12.55,12.32c2.43,0,3.69-.28,7.19-1.4v-6.63h-6.11v-4.01h10.69v13.44c-3.97,1.82-7.7,2.61-11.67,2.61-12.09,0-17.4-8.54-17.4-16.05,0-8.91,6.81-16.61,17.22-16.61,3.64,0,6.49.65,11.2,2.71v4.67Z"/><path class="cls-5" d="M81.41,162.74v31.82h-4.57v-31.82h4.57Z"/><path class="cls-5" d="M146.44,162.74v4.11h-12.41v8.82h12.41v4.11h-12.41v14.79h-4.57v-31.82h16.98Z"/><path class="cls-5" d="M216.78,162.74v4.01h-11.11v27.81h-4.57v-27.81h-10.92v-4.01h26.6Z"/><path class="cls-5" d="M334.22,162.74v4.06h-13.49v9.71h13.02v4.06h-13.02v9.89h13.91v4.11h-18.48v-31.82h18.06Z"/><path class="cls-5" d="M382.82,162.74l9.66,22.35,9.43-22.35h4.53l-13.44,32.01h-1.03l-13.72-32.01h4.57Z"/><path class="cls-5" d="M468.89,162.74v4.06h-13.49v9.71h13.02v4.06h-13.02v9.89h13.91v4.11h-18.48v-31.82h18.06Z"/><path class="cls-5" d="M519.55,162.74l21.32,24.68v-24.68h4.39v31.82h-3.97l-21.14-24.5v24.5h-4.39v-31.82h3.78Z"/><path class="cls-5" d="M616.66,162.74v4.01h-11.11v27.81h-4.57v-27.81h-10.92v-4.01h26.6Z"/></g></svg>