<?xml version="1.0" encoding="UTF-8"?><svg id="Layer_2" xmlns="http://www.w3.org/2000/svg" viewBox="0 0 517.32 172"><defs><style>.cls-1{letter-spacing:.87em;}.cls-2{letter-spacing:.87em;}.cls-3{letter-spacing:.88em;}.cls-4{letter-spacing:.88em;}.cls-5{letter-spacing:.88em;}.cls-6{letter-spacing:.88em;}.cls-7{letter-spacing:.89em;}.cls-8{letter-spacing:.88em;}.cls-9{letter-spacing:.89em;}.cls-10{font-family:"Gill Sans Nova";font-size:38.92px;font-weight:500;}.cls-10,.cls-11{fill:#000;}.cls-11{stroke-width:0px;}</style></defs><g id="Layer_1-2"><path class="cls-11" d="M111.23,71.44c-30.16,0-45.97-15.81-45.97-35.72S81.07,0,111.23,0s45.97,15.81,45.97,35.72-15.81,35.72-45.97,35.72M111.23,59.73c21.18,0,32.5-10.64,32.5-24.01s-11.32-24.01-32.5-24.01-32.5,10.64-32.5,24.01,11.32,24.01,32.5,24.01"/><polygon class="cls-11" points="246.88 57.39 249.12 57.39 249.12 1.56 262.59 1.56 262.59 69.88 240.63 69.88 192.32 13.27 189.88 13.27 189.88 69.88 176.41 69.88 176.41 1.56 199.44 1.56 246.88 57.39"/><polygon class="cls-11" points="324.36 69.88 310.89 69.88 310.89 47.63 273.12 1.56 289.71 1.56 317.72 35.82 345.74 1.56 362.13 1.56 324.36 47.63 324.36 69.88"/><polygon class="cls-11" points="411.41 42.75 384.96 69.88 367.49 69.88 402.63 33.87 371.2 1.56 388.87 1.56 411.51 24.79 434.15 1.56 451.63 1.56 420.2 33.77 455.53 69.88 437.86 69.88 411.41 42.75"/><text class="cls-10" transform="translate(0 162.27)"><tspan class="cls-3" x="0" y="0">G</tspan><tspan class="cls-4" x="63" y="0">I</tspan><tspan class="cls-7" x="106.97" y="0">F</tspan><tspan class="cls-6" x="159.95" y="0">T </tspan><tspan class="cls-9" x="262.77" y="0">E</tspan><tspan class="cls-8" x="317.55" y="0">V</tspan><tspan class="cls-1" x="375.25" y="0">E</tspan><tspan class="cls-2" x="429.5" y="0">N</tspan><tspan class="cls-5" x="493.81" y="0">T</tspan></text></g></svg>
