<?xml version="1.0" encoding="UTF-8"?>
<svg id="Layer_1" data-name="Layer 1" xmlns="http://www.w3.org/2000/svg" version="1.1" xmlns:xlink="http://www.w3.org/1999/xlink" viewBox="0 0 1000 1000">
  <defs>
    <style>
      .cls-1 {
        fill: url(#linear-gradient);
      }

      .cls-1, .cls-2, .cls-3, .cls-4, .cls-5 {
        stroke-width: 0px;
      }

      .cls-2 {
        fill: url(#linear-gradient-2);
      }

      .cls-3 {
        fill: url(#linear-gradient-3);
      }

      .cls-4 {
        fill: #fff;
      }

      .cls-5 {
        fill: url(#linear-gradient-4);
      }
    </style>
    <linearGradient id="linear-gradient" x1="323.38" y1="390.74" x2="323.38" y2="474.49" gradientUnits="userSpaceOnUse">
      <stop offset="0" stop-color="#fff"/>
      <stop offset="1" stop-color="#afafb0"/>
    </linearGradient>
    <linearGradient id="linear-gradient-2" x1="452.61" y1="390.74" x2="452.61" y2="474.49" xlink:href="#linear-gradient"/>
    <linearGradient id="linear-gradient-3" x1="569.73" y1="390.74" x2="569.73" y2="474.49" xlink:href="#linear-gradient"/>
    <linearGradient id="linear-gradient-4" x1="681.79" y1="390.74" x2="681.79" y2="474.49" xlink:href="#linear-gradient"/>
  </defs>
  <g>
    <g>
      <path class="cls-1" d="M323.38,470.1c-36,0-54.87-18.87-54.87-42.64s18.87-42.63,54.87-42.63,54.87,18.87,54.87,42.63-18.87,42.64-54.87,42.64M323.38,456.12c25.28,0,38.79-12.7,38.79-28.66s-13.52-28.66-38.79-28.66-38.79,12.7-38.79,28.66,13.51,28.66,38.79,28.66"/>
      <polygon class="cls-2" points="485.29 453.32 487.97 453.32 487.97 386.69 504.05 386.69 504.05 468.24 477.83 468.24 420.17 400.67 417.26 400.67 417.26 468.24 401.18 468.24 401.18 386.69 428.67 386.69 485.29 453.32"/>
      <polygon class="cls-3" points="577.77 468.23 561.69 468.23 561.69 441.67 516.61 386.69 536.41 386.69 569.85 427.58 603.28 386.69 622.85 386.69 577.77 441.67 577.77 468.23"/>
      <polygon class="cls-5" points="681.67 435.85 650.1 468.24 629.25 468.24 671.19 425.25 633.68 386.69 654.76 386.69 681.79 414.41 708.81 386.69 729.67 386.69 692.16 425.13 734.33 468.24 713.24 468.24 681.67 435.85"/>
    </g>
    <g>
      <path class="cls-4" d="M221.36,590c-3.62-2.14-7.66-3.3-11.24-3.3-6.83,0-12.31,5.2-12.31,12.22s5.2,12.26,12.49,12.26c2.42,0,3.67-.28,7.15-1.39v-6.6h-6.08v-3.99h10.64v13.38c-3.95,1.81-7.66,2.6-11.61,2.6-12.03,0-17.32-8.5-17.32-15.98,0-8.87,6.78-16.54,17.14-16.54,3.62,0,6.46.65,11.15,2.69v4.64Z"/>
      <path class="cls-4" d="M274.11,583.08v31.68h-4.55v-31.68h4.55Z"/>
      <path class="cls-4" d="M338.85,583.08v4.09h-12.35v8.78h12.35v4.09h-12.35v14.72h-4.55v-31.68h16.91Z"/>
      <path class="cls-4" d="M408.86,583.08v3.99h-11.05v27.68h-4.55v-27.68h-10.87v-3.99h26.48Z"/>
      <path class="cls-4" d="M525.78,583.08v4.04h-13.42v9.66h12.96v4.04h-12.96v9.85h13.84v4.09h-18.39v-31.68h17.98Z"/>
      <path class="cls-4" d="M574.15,583.08l9.62,22.25,9.38-22.25h4.51l-13.38,31.86h-1.02l-13.66-31.86h4.55Z"/>
      <path class="cls-4" d="M659.83,583.08v4.04h-13.42v9.66h12.96v4.04h-12.96v9.85h13.84v4.09h-18.39v-31.68h17.98Z"/>
      <path class="cls-4" d="M710.26,583.08l21.23,24.57v-24.57h4.37v31.68h-3.95l-21.04-24.38v24.38h-4.37v-31.68h3.76Z"/>
      <path class="cls-4" d="M806.93,583.08v3.99h-11.05v27.68h-4.55v-27.68h-10.87v-3.99h26.47Z"/>
    </g>
  </g>
  <g>
    <path class="cls-4" d="M337.98,496.48v2.56h-11.38v9.09h10.99v2.56h-10.99v9.24h11.68v2.6h-14.54v-26.03h14.24Z"/>
    <path class="cls-4" d="M413.7,496.48v23.4h12.25v2.63h-15.11v-26.03h2.86Z"/>
    <path class="cls-4" d="M500.21,496.48v26.03h-2.86v-26.03h2.86Z"/>
    <path class="cls-4" d="M593.01,496.48v2.52h-9.32v23.51h-2.86v-23.51h-9.2v-2.52h21.38Z"/>
    <path class="cls-4" d="M678.75,496.48v2.56h-11.38v9.09h10.99v2.56h-10.99v9.24h11.68v2.6h-14.54v-26.03h14.24Z"/>
  </g>
</svg>
